<?xml version="1.0" encoding="UTF-8"?>
<svg id="Layer_2" data-name="Layer 2" xmlns="http://www.w3.org/2000/svg" viewBox="0 0 32.6 31.81">
  <defs>
    <style>
      .cls-1 {
        fill: none;
        isolation: isolate;
        opacity: .97;
        stroke: #000;
        stroke-miterlimit: 10;
      }
    </style>
  </defs>
  <g id="Layer_1-2" data-name="Layer 1">
    <path class="cls-1" d="M24.2,12.61c-4.4-1.4-5.6-2.1-5.6-4.1s1.4-2.7,3.8-2.7,3.8.9,5.3,2.6l3-4.4c-1.5-1.6-3.7-2.6-5.9-3.1-2.5-.6-5-.4-7.5-.3H.5v30.2h7.6c2.7,0,5.3,0,7.9-.8.3,0,.8-.3,1.1-.2.3,0,.5.4.8.5.3.2.7.4,1.1.5.8.3,1.6.5,2.5.5,6,0,10.6-3.9,10.6-10.3s-3.18-6.98-7.58-8.28l-.32-.12ZM26.1,22.41c-.2.5-.5.8-.8,1.2-.1.1-.3.3-.5.4-1,.8-2.3,1.5-3.6,1.4-.9-.1-1.7-.7-2.4-1.3-2.2-1.8-3.9-4.2-5.9-6.3v9.3q0,.3-.3.3h-7V3.71h1.8c.4,0,3.4.1,4.1.9.6.6.8,1.5.9,2.4.1,1.3,0,2.6.1,3.9s.6,2.6,1.6,3.5c.8.6,1.8.9,2.8,1.1,2.4.6,4.9,1.3,7,2.7.7.5,1.4,1,1.9,1.8.5.7.6,1.6.3,2.4h0Z"/>
  </g>
</svg>