<svg width="126" height="215" viewBox="0 0 126 215" fill="none" xmlns="http://www.w3.org/2000/svg">
<mask id="path-1-inside-1_72_4515" fill="white">
<path d="M124.712 214.303C91.5471 214.198 59.7759 202.809 36.388 182.641C13 162.472 -0.0889754 135.176 0.000463568 106.758C0.0899025 78.3398 13.3504 51.127 36.8649 31.106C60.3793 11.0851 92.2215 -0.10389 125.387 0.000484391L125.049 107.152L124.712 214.303Z"/>
</mask>
<path d="M124.712 214.303C91.5471 214.198 59.7759 202.809 36.388 182.641C13 162.472 -0.0889754 135.176 0.000463568 106.758C0.0899025 78.3398 13.3504 51.127 36.8649 31.106C60.3793 11.0851 92.2215 -0.10389 125.387 0.000484391L125.049 107.152L124.712 214.303Z" fill="#E3F8C9" stroke="#4B1C31" stroke-width="2" mask="url(#path-1-inside-1_72_4515)"/>
</svg>
