<?xml version="1.0" encoding="UTF-8"?>
<svg id="Layer_2" data-name="Layer 2" xmlns="http://www.w3.org/2000/svg" viewBox="0 0 862.58 927.7">
  <defs>
    <style>
      .cls-1 {
        fill: #fff;
      }

      .cls-2 {
        stroke: red;
      }

      .cls-2, .cls-3, .cls-4 {
        fill: none;
        stroke-miterlimit: 10;
      }

      .cls-3 {
        stroke: #6fb657;
      }

      .cls-5 {
        fill: #414042;
      }

      .cls-4 {
        stroke: #414042;
      }
    </style>
  </defs>
  <g id="Rentegning_krop" data-name="Rentegning krop">
    <g id="helefroe">
      <path class="cls-4" d="M752.63,143.9c-1.58,1.93,2.8,0-11.91,0s-20.14,5.08-20.14,5.08c0,0-8.06,9.28-10.68,15.24-2.63,5.96-9.63,15.24-16.99,17.87-7.36,2.63-9.46,0-9.46,0l-8.76,4.2,10.86,3.68s9.28.7,10.86,5.61c1.58,4.9.14,5.67,7.88,15.14,2.8,3.43,6.83,5,6.83,5,0,0,2.19.7,2.54,2.45s.61,5.52-1.05,8.23,4.99-3.33,4.29,2.45c-.7,5.78,6.22,7.09,6.22,7.09,0,0,9.02,1.05,10.95-1.31s5.78-3.77,5.17-6.83.09-5.52-5.17-9.81-9.9-5.52-9.9-5.52c0,0-2.28-2.01-4.38-.18s-3.71,1.93-4.82,4.64"/>
      <path class="cls-4" d="M711.91,224.91s-8.32,3.94-11.56,1.23-1.05-4.29-11.74-13.14-19.79-3.42-19.79-3.42c0,0-3.5.26-1.75,2.19s6.92,2.45,9.55,6.74c2.63,4.29,2.01.09,7.44,7.97,0,0-1.58,7.79,1.14,13.93s7.62,11.3,7.62,11.3l5.61,3.15s6.66.18,9.98,4.38c3.33,4.2,3.5,6.31,3.5,6.31,0,0,2.01,4.64,0,6.83s-1.31,5.34-7.71,6.13c-6.39.79-15.24-10.77-15.24-10.77l5.61-13.22"/>
      <path class="cls-4" d="M689.69,263.09s-5.11-1.31-8.7-.7-7.79-8.41-7.79-8.41l-5.96-13.84s-4.73-6.57-7.53-7.97-14.89-9.11-22.86-11.74c-7.97-2.63-8.5-5.52-15.76-5.43-7.27.09-15.76.53-24.52,3.68s-16.47,6.04-18.74,7.53-7.18,3.15-11.3,8.41c-4.12,5.25-7.88,12.09-8.41,18.13-.53,6.04-1.66,8.5-.88,12.26.79,3.77,6.57,14.01,6.57,14.01l5.96,8.93,2.45,5.69s2.01,4.64,3.59,6.22,11.21,6.83,11.21,6.83c0,0,3.85,2.8,7.36,9.63,3.5,6.83,7.79,11.82,7.79,11.82,0,0,2.39,2.74,2.16,8.35-.23,5.61,2.22,4.79-1.28,12.85s-10.63,18.92-10.63,18.92c0,0-8.29,16.93-15.41,19.97-7.12,3.04-28.84,12.03-28.84,12.03,0,0-11.56,5.02-19.15,4.2s-11.68.23-16.58-2.8c-4.9-3.04-8.17-6.31-12.73-5.72-4.55.58-7.36,1.52-8.41,3.5s-1.63,5.72-.47,9.46,12.96,16.11,12.96,16.11l5.49,4.67s7.47,8.06,10.86,15.06,8.06,10.98,8.41,17.4c.35,6.42,4.96,10.86-1.26,17.87s-4.29.79-9.63,5.96c-5.34,5.17-5.25,8.06-5.25,8.06"/>
      <path class="cls-4" d="M527.9,481.83s3.46,8.58,5.47,10.82,3.33,4.6,7.44,6.09,6.04,1.27,10.6,3.81c4.55,2.54,11.21,7.14,11.21,7.14,0,0,12.74,10.29,15.15,14.01,2.41,3.72,6.17,7.58,8.89,14.01s4.25,7.4,6.61,12.61,8.1,19.4,9.15,25.88.61,28.78.61,28.78l-1.17,15.88s1.52,11.56-.76,18.04-4.03,11.74-2.45,19.44c1.58,7.71,1.4,15.41,11.04,21.54,9.63,6.13,13.31,6.31,13.31,6.31,0,0,10.51-1.58,14.36,1.58,3.85,3.15,11.09,10.86,14.36,15.06s15.41,10.98,28.49,13.78,24.06,3.74,33.16,12.61c9.11,8.87,22.42,21.49,27.56,29.89s7.94,12.14,7.94,12.14c0,0,1.63,3.04,4.9,7.94,3.27,4.9,10.04,18.68,19.85,22.89,9.81,4.2,10.51,1.63,18.68,6.31,8.17,4.67,7.94,5.84,11.68,8.17,3.74,2.34,9.34,6.31,19.38,4.2,10.04-2.1,8.17-.47,8.17-.47l4.2-.7s5.84-21.25,18.68-3.04c12.85,18.22-1.17,22.65-1.17,22.65,0,0-3.97.93-8.87-1.63-1.52-.8-2.98-2.69-4.26-4.93-.37-.64-.72-1.31-1.05-1.98-2.28-4.6-3.8-9.67-3.8-9.67"/>
      <path class="cls-4" d="M837.76,832.63s-6.31-.88-10.51,0c-4.2.88-20.32-.39-20.32-.39,0,0-5.08-6.09-8.93-7.67s-16.82.35-12.61,6.31,15.76,15.59,15.76,15.59l20.32,14.71,14.54,7.53s21.29-2.28,23.87,9.46,5.21,13.31-6.71,19.79c-11.91,6.48-19.09-10.51-18.22-13.31.88-2.8-1.02-18.48,6.66-16.82"/>
      <path class="cls-4" d="M834.43,889.91s-15.76-10.51-24.17-19.44c-8.41-8.93-32.58-26.1-34.68-25.75s-7.71-2.98-4.9,6.13,1.58,13.31,9.46,21.9c7.88,8.58,11.91,8.41,12.44,14.54.53,6.13,1.75,19.27,1.75,19.27,0,0,13.66,7.36,11.91,12.09s-8.41,11.04-17.17,7.01c-8.76-4.03-11.21-4.38-14.01-9.28-2.8-4.9-5.15-8.06-5.15-8.06,0,0-10.44-3.68,1.12-7.18s21.72,5.61,21.72,5.61"/>
      <path class="cls-4" d="M773.65,899.43s4.73-9.52,1.4-15.48c-3.33-5.96-10.68-16.93-14.54-22.22s-4.38-12.12-4.38-12.12c0,0,4.38-1.23,3.15-3.15s-9.63-.53-11.39,1.93-3.33,7.94-1.58,13.34c0,0-9.11,5.08-11.39,10.76s-9.63,19.69-9.63,19.69c0,0-3.5,5.96-3.85,12.44-.35,6.48,1.93,5.25,1.93,5.25,0,0,11.39,15.36,2.45,17.05-8.93,1.69-23.12-4.96-23.12-4.96,0,0-7.71-4.73-7.88-8.41-.18-3.68,9.28-4.38,9.28-4.38,0,0,9.63-2.1,15.94-.53"/>
      <path class="cls-4" d="M705.87,907.08s.18-24.17,7.88-33.28c7.71-9.11,15.59-7.36,14.71-14.54s-.35-4.9-4.9-8.93c-4.55-4.03-29.67-1.05-29.67-1.05,0,0,12.65-8.4,9.45-18.56-.38-1.21-.98-2.44-1.86-3.68-8.23-11.74-19.62,9.81-19.62,9.81,0,0-3.15,22.42,9.63,13.66"/>
      <path class="cls-4" d="M705.03,831.93s21.33,5.43,29.74,2.8c8.41-2.63,14.01.88,18.39-6.66,4.38-7.53-2.28-20.32-2.28-20.32,0,0-12.44-13.66-18.57-20.84-6.13-7.18-22.7-31.35-27.29-33.28-4.59-1.93-19.13-19.97-68.17-28.03-49.05-8.06-29.25-30.13-54.12-28.73-24.87,1.4-31,2.8-36.26,3.33-5.25.53-24.7-11.39-33.63-8.06-8.93,3.33-25.75,6.83-32.05,5.08-6.31-1.75-29.08-12.04-41.69-5.67s-33.98,30.19-33.98,30.19c0,0-3.5,10.16-8.41,13.31s-12.61,8.06-15.41,12.26c-2.8,4.2-20.67,6.31-28.03,3.85-7.36-2.45-35.38-22.42-37.48-34.33-2.1-11.91-29.08-54.3-36.08-58.85-7.01-4.55-45.19-21.72-53.25-24.52s-35.73-4.9-43.79-4.9-32.58-13.66-32.58-13.66c0,0-18.22-32.93-22.77-26.27-4.55,6.66-5.96,3.5-6.66,14.36-.7,10.86,4.03,16.08,4.34,17.59,1.15,5.57-1.66,13.12-4.69,13.94-3.85,1.05-22.07-8.41-22.07-8.41,0,0-13.31-13.66,3.85-15.76,17.17-2.1,19.97,6.19,19.97,6.19"/>
      <path class="cls-4" d="M105.94,608.78s9.28-20.49,6.48-26.97c-2.8-6.48-18.39-14.89-22.6-12.44-4.2,2.45-13.14,5.25-13.14,5.25,0,0-3.98-6.93-8.41-13.01-.63-.87-1.27-1.72-1.91-2.53-3.33-4.22-6.63-7.36-8.42-6.18-4.55,2.98-2.63,11.04-2.63,11.04,0,0-1.89,17.2,20.49,11.91"/>
      <path class="cls-4" d="M68.16,559.09s20.61-1.46,21.6,0,12.32-1.63,9.52-8.52c-2.59-6.37-30.17-54.25-30.3-54.77-1.75-6.83,1.05-10.68,1.05-10.68,0,0,3.15-6.48,8.76-2.45s6.83,6.31,6.31,10.16-1.58,6.66-5.25,7.18-7.01,0-7.01,0"/>
      <path class="cls-4" d="M85.62,495.45s16.64,42.04,27.33,39.59,12.26-11.04,12.26-11.04c0,0,.35-16.99-3.15-20.14s-7.53-7.88-6.13-11.39,7.53-9.28,16.11-4.38c8.58,4.9-.88,12.26-.88,12.26l-8.41,1.93"/>
      <path class="cls-4" d="M134.66,499.12s4.03,7.88,6.48,9.63-.7,14.54,2.63,18.22c3.33,3.68,1.75,12.26,8.58,13.49s14.54-3.85,15.24-7.53-3.15-10.86,1.23-11.21,9.11-4.02,11.74-1.83,12.44,9.19,1.4,18.47c-11.04,9.28-15.76-17.97-15.76-17.97"/>
      <path class="cls-4" d="M185.28,537.13s-11.56,14.36-20.49,16.29c-8.93,1.93-16.29,8.58-18.74,14.01s-4.73,16.99,2.28,25.4,11.91,16.82,22.77,19.27c10.86,2.45,26.62,4.9,41.69,4.2,15.06-.7,36.43-2.8,56.05,12.26,19.62,15.06,38.19,30.83,45.19,45.54s21.37,46.94,36.78,50.1,25.57-12.61,25.57-12.61c0,0-8.06-43.79-23.47-57.46-15.41-13.66-66.56-60.96-61.66-88.28,4.9-27.33,2.45-23.47,5.96-35.38"/>
      <path class="cls-4" d="M312.28,535.14s-30.48-15.87-23.12-38.99c7.36-23.12-3.5-30.83-3.5-30.83,0,0-9.81-1.05-20.32,9.11-10.51,10.16-58.15,25.22-94.94,1.05-36.78-24.17-53.95-47.29-46.94-66.91,7.01-19.62,24.17-9.81,28.73-30.13,4.55-20.32,2.1-32.58-6.66-43.09s-30.86-21.02-52.21-10.16-18.2,11.21-27.31,11.56c-9.11.35-21.02,2.1-18.57-2.45s8.06-9.11,5.61-10.51-25.22-1.05-23.12,5.96c2.1,7.01,9.81,17.17,14.36,14.71,4.55-2.45,4.79-8.29,4.79-8.29"/>
      <path class="cls-4" d="M55.14,324.49s38.89-12.26,30.83-18.92-15.06,1.4-18.22-3.5-9.81-17.17-19.97-20.32c-10.16-3.15-29.43-6.66-31.88-2.8s-17.87.35-15.06-4.9,9.11-16.82,25.57-7.01c16.47,9.81-24.7,18.86-23.53,12.67"/>
      <path class="cls-4" d="M28.98,267.15s17.52-1.52,23.12,2.1c5.61,3.62,27.91,19.68,29.14,18.28s7.71-5.25-4.73-18.74c-12.44-13.49-13.14-9.28-17.69-20.84-4.55-11.56-17.69-27.33-27.15-27.85-9.46-.53,8.23-9.81,3.33-13.66s-12.09-14.01-15.76-7.01-5.78,1.05-7.53,3.33-5.7,8.36,9.68,13.36c.49.16,1,.32,1.54.48,0,0,13.31-4.73,13.58-7.44s6.74-1.05,6.74-1.05c0,0,8.32,5.43,9.72,7.79s7.53,3.24,7.53,3.24c0,0,22.86,27.24,30.39,47.91,7.53,20.67,19.97,3.5,12.26-8.58-7.71-12.09-12.09-39.76-14.01-50.8-1.93-11.04-12.44-21.72-12.44-21.72,0,0-15.94-11.39-2.63-15.41,13.31-4.03,15.41,2.8,15.41,2.8,0,0,13.31,8.76-9.28,14.36"/>
      <path class="cls-4" d="M94.03,181.56s-.53,15.06,2.8,18.22,1.23,14.36,9.63,34.51,23.12,51.32,24.52,54.3,12.26,5.78-1.58-26.1c-13.84-31.88.53-11.21,2.45-24.87s2.1-14.19.18-19.27-31-.35-11.56-15.94c19.44-15.59,28.03,5.61,23.12,8.93s-10.86,9.28-15.41,6.13"/>
      <path class="cls-4" d="M146.57,207.48s7.18,16.64,2.1,23.65c-5.08,7.01-16.82,19.27-10.68,36.78,6.13,17.52,5.44,28.08,12.5,36.96s38.35,41.57,32.28,54.65c-6.07,13.08-38.75,34.57-37.82,46.24.92,11.68,60.71,99.02,109.29,43.91,48.58-55.12-35.03-61.66,25.69-75.67"/>
      <path class="cls-4" d="M541.04,535.14s38.3,4.78,25.22,52.61"/>
      <path class="cls-4" d="M459.76,354.53s42.04-5.16,56.05,7.63c14.01,12.78,73.8,4.48,59.79-24.53-14.01-29.01-50.45-57.04-34.57-86,15.88-28.96,32.4-49.51,48.9-54.18,16.5-4.67,26.77-19.62,27.71-33.63.93-14.01-2.8-14.95,0-34.57"/>
      <path class="cls-4" d="M630.25,123.87s-21.25,13.55-21.72,3.04c-.47-10.51,1.63-24.06,13.55-22.89s13.55,5.84,13.55,5.84c0,0-.74,9.78-4.67,12.85s4.9-.23,4.67,9.58-7.01,33.63-3.74,35.97,10.98,6.77,17.05-1.17,8.87-13.43,12.14-23.18c3.27-9.75,13.6-18.63,13.6-18.63,0,0,8.58-7.24,11.85-5.37"/>
      <path class="cls-4" d="M694.48,129.24s-15.18-12.85-4.79-23.12c10.39-10.28,23.71,13.31,18.34,17.05s-12.85,9.73-14.95,6.07-18.92,13.31-21.25,20.09-3.26,17.05-5.25,20.79c-1.99,3.74-9,1.4-8.3,4.44s12.14-6.77,19.15-6.31c7.01.47,12.14,0,19.85-13.31,7.71-13.31,20.09-27.33,33.16-25.69s17.52-1.4,17.52-1.4l5.84-.7s-7.01,12.03,0,16.76,11.91,4.96,14.48-1.58c2.57-6.54,7.01-17.98-3.97-21.72s-10.04,8.37-10.04,8.37"/>
      <path class="cls-4" d="M198.66,220.32s5.14,61.66,21.02,86.88c15.88,25.22,4.67,27.56,23.82,26.16,19.15-1.4,28.49-4.1,30.36,4.26,1.87,8.36,9.81,33.11,9.34,34.51-.22.65,1.5,5.39,4.01,9.96,2.87,5.21,6.76,10.22,10,8.72"/>
      <path class="cls-4" d="M308.89,404.83s-26.07-7.17-21.68-22.74"/>
      <path class="cls-4" d="M161.29,157.27s-14.48,38.41,66.33,57.74"/>
      <path class="cls-4" d="M229.48,266.1s19.62,38.57,41.1,39.6"/>
      <path class="cls-4" d="M231.82,290.28s7.01,15.52,18.22,19.72"/>
      <path class="cls-4" d="M437.81,317.95s-15.41,25.51,2.34,36.58c17.75,11.07-22.89,29.28-25.69,30.68-2.8,1.4-19.15,2.34-19.15,2.34"/>
      <path class="cls-4" d="M436.41,393.46s26.16-5.91,23.35-17.59c-2.8-11.68-13.34-19.15-11.57-32.23s18.58-54.18,36.8-71.47c18.22-17.28,20.09-33.63,12.61-64.69-7.47-31.06-17.17-36.96-17.17-36.96"/>
      <path class="cls-4" d="M456.96,212.38s20.55,28.03-5.14,57.92"/>
      <path class="cls-4" d="M477.98,220.32s8.41,21.07,2.34,28.28c-6.07,7.22-11.26,17.49-11.26,17.49"/>
      <path class="cls-4" d="M338.78,183.8s-3.27-13.64,4.67,0c7.94,13.64,15.88,14.1,9.34,21.58s-14.68-19.24-14.68-19.24"/>
      <path class="cls-4" d="M316.36,192.22s7.01,4.59,9.81,14.48c2.8,9.89-1.87,13.63-1.87,13.63,0,0-23.12-4.67-12.03-15.88s1.75-16.23,1.75-16.23c0,0-8.27,5.52.35,8.41s11.74,14.36,11.74,14.36c0,0,1.58,4.73-1.58,2.8-3.15-1.93-5.08-1.05-11.91-11.91"/>
      <polyline class="cls-4" points="338.12 184.88 338.12 188.21 338.12 181.91"/>
      <path class="cls-4" d="M260.78,78.33s-2.34-7.94,30.83-15.41"/>
      <path class="cls-4" d="M451.82,600.08s11.52,4.32,6.46,8.7"/>
      <path class="cls-4" d="M279.93,105.42s-.93-10.74,14.95,0"/>
    </g>
    <g id="oeje">
      <g>
        <path class="cls-4" d="M419.96,162.64s15.63.7,34.2,6.31c18.57,5.61,31.18-3.15,31.18-3.15,0,0,9.11-11.56,6.66-20.67"/>
        <path class="cls-4" d="M438.39,148.63s33.95,10.16,44.12-3.5,12.06-15.06,9.89-19.27-5.67,1.05-7.08-3.15"/>
        <path class="cls-4" d="M469.06,134.61s-38.37,21.85-81.46,2.87c-43.09-18.98-58.97-53.78-56.29-59.15s4.44-7.71,4.44-7.71c0,0,7.01,10.74,7.36,13.2s6.66,11.21,6.66,11.21c0,0,5.3,8.73,5.45,8.92s12.76,19.46,46.39,20.51c33.63,1.05,39.24.7,39.24.7"/>
        <path class="cls-4" d="M449.6,122.7s2.3,2.1,6.58-1.4"/>
        <path class="cls-4" d="M464.74,123.33s21.64-14.29,22.34-25.85,5.61-20.79,0-34.57c-5.61-13.78-20.67-29.19-27.33-35.15-6.66-5.96-38.89-21.37-51.15-23.12-12.26-1.75-20.67-7.01-37.48-2.1-16.82,4.9-28.89,9.11-33.01,19.97s-11.24,12.14-6.81,30.13l4.44,17.98"/>
        <path class="cls-4" d="M486.91,58.59s7.53,13.14,8.06,22.77c.53,9.63,3.15,13.49-1.76,25.22s-21.02,19.97-21.02,19.97"/>
        <path class="cls-4" d="M412.03,5.35s-22.8,5.02-6.45,17.4c16.35,12.38,31.76,15.18,31.76,15.18,0,0,18.45,3.16,10.74-16.29"/>
        <path class="cls-4" d="M427.07,12.47s-15.93,7.24-2.24,12.38c13.69,5.14,11.82,1.87,11.82,1.87,0,0,3.68-6.07.09-8.87s-9.66-5.37-9.66-5.37Z"/>
        <path class="cls-4" d="M238.71,96.43s12.14,9.46,9.23,30.48c-2.92,21.02-13.43,39.15-21.49,42.34"/>
        <path class="cls-4" d="M165.67,168.07s-.53,3.27,7.71,5.14,17.92,4.55,22.83,3.09"/>
        <path class="cls-4" d="M217.69,73.13s22.42-7.47,31.88,5.2c9.46,12.67,6.58,4.79,11.17,13.9l4.59,9.11"/>
        <path class="cls-4" d="M263.76,139.34s.53-54.48-44.14-59.2c-44.67-4.73-53.77,21.66-55,25.28s-5.25,31.3,2.8,41.98,8.76,11.04,8.76,11.04"/>
        <path class="cls-4" d="M180.93,88.54s10.31,18.22,3.13,23.65c-7.18,5.43-2.97,5.57-11.91,3.5-8.94-2.06-7.36-6.13-7.36-6.13"/>
        <path class="cls-4" d="M171.02,97.3s9.94-3.33,9.91,0-.92,12.79-5.29,14.01-10.15-7.88-6.3-11.74"/>
        <path class="cls-5" d="M448.66,25.68c-.35-2.53-1.52-4.93-3.72-5.9-.13-.09-.2-.24-.34-.31-.56-.35-1.16-.55-1.8-.58-.5-.11-1.01-.09-1.51.01.3-.92-.08-2.03-1.31-2.03-1.82,0-2.27,2.5-.91,3.09-.43.36-.81.75-1.1,1.24-.16.39-.33.77-.49,1.16-.23.86-.23,1.72,0,2.58l.09.26c.1.4.27.76.48,1.1-2.09.26-4.35.3-6.48.16-.57-.04-1.14-.08-1.71-.16-.15-.04-.85-.17-.95-.19-1.06-.27-1.03-.44-2.19-1.16-1.93-1.21-3.97-2.13-5.85-3.45-.96-.67-1.91-1.36-2.86-2.04,1.79-1.15,3.07-2.95,3.44-5.27.13-.09.25-.17.35-.29.59-.11,1.19-.19,1.78-.34.3-.08.61-.16.9-.28.48-.2.88-.6,1.06-1.09.27-.71,0-1.61-.64-2.04-.16-.11-.34-.2-.52-.26-.08-.03-.16-.04-.24-.05-.02,0-.04-.02-.06-.02-.12-.1-.24-.2-.38-.3-.37-.26-.84-.42-1.29-.45-.6-.04-1.16.13-1.71.36-1.22-2.53-3.61-4.54-6.48-4.54-2.4,0-4.67.85-6.31,2.37-4.17.19-7.89,2.86-8.28,7.3-.36,4.06,2.96,8.75,7.34,8.75.31,0,.6-.05.9-.08,1.36,2.13,3.86,3.6,5.92,5.07,2.47,1.77,4.96,3.25,7.59,4.75,1.33.76,2.48,1.58,3.96,2.1,1.58.55,3.28.72,4.94.89,1.84.19,3.67.21,5.49.12.41.54.89,1.03,1.52,1.4,1.86,1.09,3.81.61,5.66-.14,1.51-.61,3.37-1.15,4.57-2.32,2.69-2.6,1.58-6.17,1.13-9.42Z"/>
        <path class="cls-5" d="M188.05,96.51c-.11-2.28-.76-4.26-2.22-6.05-.7-.85-1.53-1.62-2.38-2.32-.23-.19-.47-.39-.72-.58-.09-.28-.12-.6-.23-.87-.56-1.35-2.31-1.94-3.33-.69-.7.86-1.34,2.37-1.5,3.64-.62-.1-1.26.04-1.86.6-.45.41-.67.94-.8,1.49-.55.1-1.09.21-1.62.39-.66.22-1.34.51-1.87.97-.53.46-.68,1.14-1.15,1.62-.46.47-1.11.76-1.6,1.21-.64.58-1.13,1.28-1.5,2.05-.39.81-.6,1.68-.71,2.55-.34.15-.63.44-.79.91-.96,2.95-4.92,6.57-2.37,9.79.85,1.07,2.4,1.49,3.43.54.12.11.27.19.41.29-.08.04-.15.07-.23.13-1.37.97-.22,3.08,1.29,2.84.35-.05.69-.07,1.04-.07.13.02.25.04.32.06.39.1.78.19,1.17.27.85.18,1.71.34,2.58.45,1.65.21,3.46.42,5.12.22.93-.11,1.77-.65,2.04-1.49.98.31,2.2-.3,2.69-1.42.39-.88.25-1.86.56-2.75.1-.29.27-.55.43-.82.84-.6,1.67-1.25,2.22-2.13.66-1.05.89-2.29,1.15-3.48.53-2.44.53-4.87.41-7.35ZM183.53,92.76c1.09,1.41,1.28,2.91,1.36,4.65.03.68.01,1.37,0,2.05-.17-.55-.34-1.09-.59-1.61-.11-.51-.35-.95-.73-1.31-.02-.03-.03-.06-.05-.09,0,0-.01.01-.02.02-.1-.09-.16-.21-.27-.29.13-1.17.21-2.34.21-3.53.03.04.07.07.1.1ZM178.73,108.73c-.1.58.02,1.38-.34,1.86-.31.41-.96.55-1.43.65-.57.12-.96.49-1.16.94-.24-.32-.59-.55-1.1-.57-1.43-.05-2.79-1.13-4.17-1.52-.17-.05-.34-.15-.51-.23.26-.35.39-.8.37-1.28-.06-.99-.36-1.93-.45-2.91-.09-.94.1-1.89.38-2.78.19-.61.4-1.25.64-1.87.32-.47.65-.93.99-1.38.21-.09.45-.16.73-.23,1.03-.26,2.07-.53,3.1-.79.31-.08.97-.38,1.3-.32.15.03.59.5.8.64.16.11.32.21.48.33-.13-.1.16.2.07.06.12.2.17.56.19.87.06.89,0,1.85.17,2.76.22,1.17.62,2.29.74,3.47,0,.05,0,.11,0,.16-.34.68-.65,1.35-.79,2.13Z"/>
        <path class="cls-4" d="M314.5,59.64s-21.49-38.3,16.82-49.05"/>
        <path class="cls-3" d="M171.03,186.14s-.87-.7,14.08,3.9,29.89,16.74,40.17,6.93c10.28-9.81,16.35-32.23,22.65-29.89"/>
      </g>
      <g>
        <path class="cls-4" d="M419.96,162.64s15.63.7,34.2,6.31c18.57,5.61,31.18-3.15,31.18-3.15,0,0,9.11-11.56,6.66-20.67"/>
        <path class="cls-4" d="M438.39,148.63s33.95,10.16,44.12-3.5,12.06-15.06,9.89-19.27-5.67,1.05-7.08-3.15"/>
        <path class="cls-4" d="M469.06,134.61s-38.37,21.85-81.46,2.87c-43.09-18.98-58.97-53.78-56.29-59.15s4.44-7.71,4.44-7.71c0,0,7.01,10.74,7.36,13.2s6.66,11.21,6.66,11.21c0,0,5.3,8.73,5.45,8.92s12.76,19.46,46.39,20.51c33.63,1.05,39.24.7,39.24.7"/>
        <path class="cls-4" d="M449.6,122.7s2.3,2.1,6.58-1.4"/>
        <path class="cls-4" d="M464.74,123.33s21.64-14.29,22.34-25.85,5.61-20.79,0-34.57c-5.61-13.78-20.67-29.19-27.33-35.15-6.66-5.96-38.89-21.37-51.15-23.12-12.26-1.75-20.67-7.01-37.48-2.1-16.82,4.9-28.89,9.11-33.01,19.97s-11.24,12.14-6.81,30.13l4.44,17.98"/>
        <path class="cls-4" d="M486.91,58.59s7.53,13.14,8.06,22.77c.53,9.63,3.15,13.49-1.76,25.22s-21.02,19.97-21.02,19.97"/>
        <path class="cls-4" d="M412.03,5.35s-22.8,5.02-6.45,17.4c16.35,12.38,31.76,15.18,31.76,15.18,0,0,18.45,3.16,10.74-16.29"/>
        <path class="cls-4" d="M427.07,12.47s-15.93,7.24-2.24,12.38c13.69,5.14,11.82,1.87,11.82,1.87,0,0,3.68-6.07.09-8.87s-9.66-5.37-9.66-5.37Z"/>
        <path class="cls-4" d="M238.71,96.43s12.14,9.46,9.23,30.48c-2.92,21.02-13.43,39.15-21.49,42.34"/>
        <path class="cls-4" d="M165.67,168.07s-.53,3.27,7.71,5.14,17.92,4.55,22.83,3.09"/>
        <path class="cls-4" d="M217.69,73.13s22.42-7.47,31.88,5.2c9.46,12.67,6.58,4.79,11.17,13.9l4.59,9.11"/>
        <path class="cls-4" d="M263.76,139.34s.53-54.48-44.14-59.2c-44.67-4.73-53.77,21.66-55,25.28s-5.25,31.3,2.8,41.98,8.76,11.04,8.76,11.04"/>
        <path class="cls-4" d="M180.93,88.54s10.31,18.22,3.13,23.65c-7.18,5.43-2.97,5.57-11.91,3.5-8.94-2.06-7.36-6.13-7.36-6.13"/>
        <path class="cls-4" d="M171.02,97.3s9.94-3.33,9.91,0-.92,12.79-5.29,14.01-10.15-7.88-6.3-11.74"/>
        <path class="cls-4" d="M448.66,25.68c-.35-2.53-1.52-4.93-3.72-5.9-.13-.09-.2-.24-.34-.31-.56-.35-1.16-.55-1.8-.58-.5-.11-1.01-.09-1.51.01.3-.92-.08-2.03-1.31-2.03-1.82,0-2.27,2.5-.91,3.09-.43.36-.81.75-1.1,1.24-.16.39-.33.77-.49,1.16-.23.86-.23,1.72,0,2.58l.09.26c.1.4.27.76.48,1.1-2.09.26-4.35.3-6.48.16-.57-.04-1.14-.08-1.71-.16-.15-.04-.85-.17-.95-.19-1.06-.27-1.03-.44-2.19-1.16-1.93-1.21-3.97-2.13-5.85-3.45-.96-.67-1.91-1.36-2.86-2.04,1.79-1.15,3.07-2.95,3.44-5.27.13-.09.25-.17.35-.29.59-.11,1.19-.19,1.78-.34.3-.08.61-.16.9-.28.48-.2.88-.6,1.06-1.09.27-.71,0-1.61-.64-2.04-.16-.11-.34-.2-.52-.26-.08-.03-.16-.04-.24-.05-.02,0-.04-.02-.06-.02-.12-.1-.24-.2-.38-.3-.37-.26-.84-.42-1.29-.45-.6-.04-1.16.13-1.71.36-1.22-2.53-3.61-4.54-6.48-4.54-2.4,0-4.67.85-6.31,2.37-4.17.19-7.89,2.86-8.28,7.3-.36,4.06,2.96,8.75,7.34,8.75.31,0,.6-.05.9-.08,1.36,2.13,3.86,3.6,5.92,5.07,2.47,1.77,4.96,3.25,7.59,4.75,1.33.76,2.48,1.58,3.96,2.1,1.58.55,3.28.72,4.94.89,1.84.19,3.67.21,5.49.12.41.54.89,1.03,1.52,1.4,1.86,1.09,3.81.61,5.66-.14,1.51-.61,3.37-1.15,4.57-2.32,2.69-2.6,1.58-6.17,1.13-9.42Z"/>
        <path class="cls-4" d="M188.05,96.51c-.11-2.28-.76-4.26-2.22-6.05-.7-.85-1.53-1.62-2.38-2.32-.23-.19-.47-.39-.72-.58-.09-.28-.12-.6-.23-.87-.56-1.35-2.31-1.94-3.33-.69-.7.86-1.34,2.37-1.5,3.64-.62-.1-1.26.04-1.86.6-.45.41-.67.94-.8,1.49-.55.1-1.09.21-1.62.39-.66.22-1.34.51-1.87.97-.53.46-.68,1.14-1.15,1.62-.46.47-1.11.76-1.6,1.21-.64.58-1.13,1.28-1.5,2.05-.39.81-.6,1.68-.71,2.55-.34.15-.63.44-.79.91-.96,2.95-4.92,6.57-2.37,9.79.85,1.07,2.4,1.49,3.43.54.12.11.27.19.41.29-.08.04-.15.07-.23.13-1.37.97-.22,3.08,1.29,2.84.35-.05.69-.07,1.04-.07.13.02.25.04.32.06.39.1.78.19,1.17.27.85.18,1.71.34,2.58.45,1.65.21,3.46.42,5.12.22.93-.11,1.77-.65,2.04-1.49.98.31,2.2-.3,2.69-1.42.39-.88.25-1.86.56-2.75.1-.29.27-.55.43-.82.84-.6,1.67-1.25,2.22-2.13.66-1.05.89-2.29,1.15-3.48.53-2.44.53-4.87.41-7.35ZM183.53,92.76c1.09,1.41,1.28,2.91,1.36,4.65.03.68.01,1.37,0,2.05-.17-.55-.34-1.09-.59-1.61-.11-.51-.35-.95-.73-1.31-.02-.03-.03-.06-.05-.09,0,0-.01.01-.02.02-.1-.09-.16-.21-.27-.29.13-1.17.21-2.34.21-3.53.03.04.07.07.1.1ZM178.73,108.73c-.1.58.02,1.38-.34,1.86-.31.41-.96.55-1.43.65-.57.12-.96.49-1.16.94-.24-.32-.59-.55-1.1-.57-1.43-.05-2.79-1.13-4.17-1.52-.17-.05-.34-.15-.51-.23.26-.35.39-.8.37-1.28-.06-.99-.36-1.93-.45-2.91-.09-.94.1-1.89.38-2.78.19-.61.4-1.25.64-1.87.32-.47.65-.93.99-1.38.21-.09.45-.16.73-.23,1.03-.26,2.07-.53,3.1-.79.31-.08.97-.38,1.3-.32.15.03.59.5.8.64.16.11.32.21.48.33-.13-.1.16.2.07.06.12.2.17.56.19.87.06.89,0,1.85.17,2.76.22,1.17.62,2.29.74,3.47,0,.05,0,.11,0,.16-.34.68-.65,1.35-.79,2.13Z"/>
        <path class="cls-4" d="M314.5,59.64s-21.49-38.3,16.82-49.05"/>
        <path class="cls-4" d="M171.03,186.14s-.87-.7,14.08,3.9,29.89,16.74,40.17,6.93c10.28-9.81,16.35-32.23,22.65-29.89"/>
      </g>
    </g>
    <g id="oejevariant">
      <g>
        <path class="cls-4" d="M419.96,162.64s15.63.7,34.2,6.31c18.57,5.61,31.18-3.15,31.18-3.15,0,0,9.11-11.56,6.66-20.67"/>
        <path class="cls-4" d="M438.39,148.63s33.95,10.16,44.12-3.5,12.06-15.06,9.89-19.27-5.67,1.05-7.08-3.15"/>
        <path class="cls-4" d="M469.06,134.61s-38.37,21.85-81.46,2.87c-43.09-18.98-58.97-53.78-56.29-59.15s4.44-7.71,4.44-7.71c0,0,7.01,10.74,7.36,13.2s6.66,11.21,6.66,11.21c0,0,5.3,8.73,5.45,8.92s12.76,19.46,46.39,20.51c33.63,1.05,39.24.7,39.24.7"/>
        <path class="cls-4" d="M449.6,122.7s2.3,2.1,6.58-1.4"/>
        <path class="cls-4" d="M464.74,123.33s21.64-14.29,22.34-25.85,5.61-20.79,0-34.57c-5.61-13.78-20.67-29.19-27.33-35.15-6.66-5.96-38.89-21.37-51.15-23.12-12.26-1.75-20.67-7.01-37.48-2.1-16.82,4.9-28.89,9.11-33.01,19.97s-11.24,12.14-6.81,30.13l4.44,17.98"/>
        <path class="cls-4" d="M486.91,58.59s7.53,13.14,8.06,22.77c.53,9.63,3.15,13.49-1.76,25.22s-21.02,19.97-21.02,19.97"/>
        <path class="cls-4" d="M412.03,5.35s-22.8,5.02-6.45,17.4c16.35,12.38,31.76,15.18,31.76,15.18,0,0,18.45,3.16,10.74-16.29"/>
        <path class="cls-4" d="M427.07,12.47s-15.93,7.24-2.24,12.38c13.69,5.14,11.82,1.87,11.82,1.87,0,0,3.68-6.07.09-8.87s-9.66-5.37-9.66-5.37Z"/>
        <path class="cls-4" d="M238.71,96.43s12.14,9.46,9.23,30.48c-2.92,21.02-13.43,39.15-21.49,42.34"/>
        <path class="cls-4" d="M165.67,168.07s-.53,3.27,7.71,5.14,17.92,4.55,22.83,3.09"/>
        <path class="cls-4" d="M217.69,73.13s22.42-7.47,31.88,5.2c9.46,12.67,6.58,4.79,11.17,13.9l4.59,9.11"/>
        <path class="cls-4" d="M263.76,139.34s.53-54.48-44.14-59.2c-44.67-4.73-53.77,21.66-55,25.28s-5.25,31.3,2.8,41.98,8.76,11.04,8.76,11.04"/>
        <path class="cls-4" d="M180.93,88.54s10.31,18.22,3.13,23.65c-7.18,5.43-2.97,5.57-11.91,3.5-8.94-2.06-7.36-6.13-7.36-6.13"/>
        <path class="cls-4" d="M171.02,97.3s9.94-3.33,9.91,0-.92,12.79-5.29,14.01-10.15-7.88-6.3-11.74"/>
        <path class="cls-5" d="M448.66,25.68c-.35-2.53-1.52-4.93-3.72-5.9-.13-.09-.2-.24-.34-.31-.56-.35-1.16-.55-1.8-.58-.5-.11-1.01-.09-1.51.01.3-.92-.08-2.03-1.31-2.03-1.82,0-2.27,2.5-.91,3.09-.43.36-.81.75-1.1,1.24-.16.39-.33.77-.49,1.16-.23.86-.23,1.72,0,2.58l.09.26c.1.4.27.76.48,1.1-2.09.26-4.35.3-6.48.16-.57-.04-1.14-.08-1.71-.16-.15-.04-.85-.17-.95-.19-1.06-.27-1.03-.44-2.19-1.16-1.93-1.21-3.97-2.13-5.85-3.45-.96-.67-1.91-1.36-2.86-2.04,1.79-1.15,3.07-2.95,3.44-5.27.13-.09.25-.17.35-.29.59-.11,1.19-.19,1.78-.34.3-.08.61-.16.9-.28.48-.2.88-.6,1.06-1.09.27-.71,0-1.61-.64-2.04-.16-.11-.34-.2-.52-.26-.08-.03-.16-.04-.24-.05-.02,0-.04-.02-.06-.02-.12-.1-.24-.2-.38-.3-.37-.26-.84-.42-1.29-.45-.6-.04-1.16.13-1.71.36-1.22-2.53-3.61-4.54-6.48-4.54-2.4,0-4.67.85-6.31,2.37-4.17.19-7.89,2.86-8.28,7.3-.36,4.06,2.96,8.75,7.34,8.75.31,0,.6-.05.9-.08,1.36,2.13,3.86,3.6,5.92,5.07,2.47,1.77,4.96,3.25,7.59,4.75,1.33.76,2.48,1.58,3.96,2.1,1.58.55,3.28.72,4.94.89,1.84.19,3.67.21,5.49.12.41.54.89,1.03,1.52,1.4,1.86,1.09,3.81.61,5.66-.14,1.51-.61,3.37-1.15,4.57-2.32,2.69-2.6,1.58-6.17,1.13-9.42Z"/>
        <path class="cls-5" d="M188.05,96.51c-.11-2.28-.76-4.26-2.22-6.05-.7-.85-1.53-1.62-2.38-2.32-.23-.19-.47-.39-.72-.58-.09-.28-.12-.6-.23-.87-.56-1.35-2.31-1.94-3.33-.69-.7.86-1.34,2.37-1.5,3.64-.62-.1-1.26.04-1.86.6-.45.41-.67.94-.8,1.49-.55.1-1.09.21-1.62.39-.66.22-1.34.51-1.87.97-.53.46-.68,1.14-1.15,1.62-.46.47-1.11.76-1.6,1.21-.64.58-1.13,1.28-1.5,2.05-.39.81-.6,1.68-.71,2.55-.34.15-.63.44-.79.91-.96,2.95-4.92,6.57-2.37,9.79.85,1.07,2.4,1.49,3.43.54.12.11.27.19.41.29-.08.04-.15.07-.23.13-1.37.97-.22,3.08,1.29,2.84.35-.05.69-.07,1.04-.07.13.02.25.04.32.06.39.1.78.19,1.17.27.85.18,1.71.34,2.58.45,1.65.21,3.46.42,5.12.22.93-.11,1.77-.65,2.04-1.49.98.31,2.2-.3,2.69-1.42.39-.88.25-1.86.56-2.75.1-.29.27-.55.43-.82.84-.6,1.67-1.25,2.22-2.13.66-1.05.89-2.29,1.15-3.48.53-2.44.53-4.87.41-7.35ZM183.53,92.76c1.09,1.41,1.28,2.91,1.36,4.65.03.68.01,1.37,0,2.05-.17-.55-.34-1.09-.59-1.61-.11-.51-.35-.95-.73-1.31-.02-.03-.03-.06-.05-.09,0,0-.01.01-.02.02-.1-.09-.16-.21-.27-.29.13-1.17.21-2.34.21-3.53.03.04.07.07.1.1ZM178.73,108.73c-.1.58.02,1.38-.34,1.86-.31.41-.96.55-1.43.65-.57.12-.96.49-1.16.94-.24-.32-.59-.55-1.1-.57-1.43-.05-2.79-1.13-4.17-1.52-.17-.05-.34-.15-.51-.23.26-.35.39-.8.37-1.28-.06-.99-.36-1.93-.45-2.91-.09-.94.1-1.89.38-2.78.19-.61.4-1.25.64-1.87.32-.47.65-.93.99-1.38.21-.09.45-.16.73-.23,1.03-.26,2.07-.53,3.1-.79.31-.08.97-.38,1.3-.32.15.03.59.5.8.64.16.11.32.21.48.33-.13-.1.16.2.07.06.12.2.17.56.19.87.06.89,0,1.85.17,2.76.22,1.17.62,2.29.74,3.47,0,.05,0,.11,0,.16-.34.68-.65,1.35-.79,2.13Z"/>
        <path class="cls-4" d="M314.5,59.64s-21.49-38.3,16.82-49.05"/>
        <path class="cls-3" d="M171.03,186.14s-.87-.7,14.08,3.9,29.89,16.74,40.17,6.93c10.28-9.81,16.35-32.23,22.65-29.89"/>
        <path class="cls-2" d="M375.69,119.27c12.47,3.4,35.58-11.28,7.88-27.49-12.16-7.11,9.87-12.55,9.87-12.55"/>
        <path class="cls-2" d="M210.6,115.42s1.14,12.35,9.52,8.66c19.09-8.41,28.27,7.32,23.15,12.31,0,0,.12,2.56.96,2.56"/>
        <path class="cls-2" d="M452.36,123.57c-9.16,2.05-26.15-6.79-5.79-16.55,8.94-4.28-7.25-7.56-7.25-7.56"/>
        <path class="cls-2" d="M207.06,166.93c-7.74,5.33-26.88,3.18-11.64-13.62,6.69-7.37-9.6-4.52-9.6-4.52"/>
        <path class="cls-2" d="M228.05,101.42s5-2.79,5.98,1.4c2.22,9.56,10.79,8.98,11.23,5.7,0,0-1.62-2.25-.58-2.92"/>
        <path class="cls-2" d="M352.5,35.75c-.44,3.28-9,3.86-11.23-5.7-.97-4.19-5.98-1.4-5.98-1.4"/>
      </g>
      <g>
        <path class="cls-4" d="M419.96,162.64s15.63.7,34.2,6.31c18.57,5.61,31.18-3.15,31.18-3.15,0,0,9.11-11.56,6.66-20.67"/>
        <path class="cls-4" d="M438.39,148.63s33.95,10.16,44.12-3.5,12.06-15.06,9.89-19.27-5.67,1.05-7.08-3.15"/>
        <path class="cls-4" d="M469.06,134.61s-38.37,21.85-81.46,2.87c-43.09-18.98-58.97-53.78-56.29-59.15s4.44-7.71,4.44-7.71c0,0,7.01,10.74,7.36,13.2s6.66,11.21,6.66,11.21c0,0,5.3,8.73,5.45,8.92s12.76,19.46,46.39,20.51c33.63,1.05,39.24.7,39.24.7"/>
        <path class="cls-4" d="M449.6,122.7s2.3,2.1,6.58-1.4"/>
        <path class="cls-4" d="M464.74,123.33s21.64-14.29,22.34-25.85,5.61-20.79,0-34.57c-5.61-13.78-20.67-29.19-27.33-35.15-6.66-5.96-38.89-21.37-51.15-23.12-12.26-1.75-20.67-7.01-37.48-2.1-16.82,4.9-28.89,9.11-33.01,19.97s-11.24,12.14-6.81,30.13l4.44,17.98"/>
        <path class="cls-4" d="M486.91,58.59s7.53,13.14,8.06,22.77c.53,9.63,3.15,13.49-1.76,25.22s-21.02,19.97-21.02,19.97"/>
        <path class="cls-4" d="M412.03,5.35s-22.8,5.02-6.45,17.4c16.35,12.38,31.76,15.18,31.76,15.18,0,0,18.45,3.16,10.74-16.29"/>
        <path class="cls-4" d="M427.07,12.47s-15.93,7.24-2.24,12.38c13.69,5.14,11.82,1.87,11.82,1.87,0,0,3.68-6.07.09-8.87s-9.66-5.37-9.66-5.37Z"/>
        <path class="cls-4" d="M238.71,96.43s12.14,9.46,9.23,30.48c-2.92,21.02-13.43,39.15-21.49,42.34"/>
        <path class="cls-4" d="M165.67,168.07s-.53,3.27,7.71,5.14,17.92,4.55,22.83,3.09"/>
        <path class="cls-4" d="M217.69,73.13s22.42-7.47,31.88,5.2c9.46,12.67,6.58,4.79,11.17,13.9l4.59,9.11"/>
        <path class="cls-4" d="M263.76,139.34s.53-54.48-44.14-59.2c-44.67-4.73-53.77,21.66-55,25.28s-5.25,31.3,2.8,41.98,8.76,11.04,8.76,11.04"/>
        <path class="cls-4" d="M180.93,88.54s10.31,18.22,3.13,23.65c-7.18,5.43-2.97,5.57-11.91,3.5-8.94-2.06-7.36-6.13-7.36-6.13"/>
        <path class="cls-4" d="M171.02,97.3s9.94-3.33,9.91,0-.92,12.79-5.29,14.01-10.15-7.88-6.3-11.74"/>
        <path class="cls-4" d="M448.66,25.68c-.35-2.53-1.52-4.93-3.72-5.9-.13-.09-.2-.24-.34-.31-.56-.35-1.16-.55-1.8-.58-.5-.11-1.01-.09-1.51.01.3-.92-.08-2.03-1.31-2.03-1.82,0-2.27,2.5-.91,3.09-.43.36-.81.75-1.1,1.24-.16.39-.33.77-.49,1.16-.23.86-.23,1.72,0,2.58l.09.26c.1.4.27.76.48,1.1-2.09.26-4.35.3-6.48.16-.57-.04-1.14-.08-1.71-.16-.15-.04-.85-.17-.95-.19-1.06-.27-1.03-.44-2.19-1.16-1.93-1.21-3.97-2.13-5.85-3.45-.96-.67-1.91-1.36-2.86-2.04,1.79-1.15,3.07-2.95,3.44-5.27.13-.09.25-.17.35-.29.59-.11,1.19-.19,1.78-.34.3-.08.61-.16.9-.28.48-.2.88-.6,1.06-1.09.27-.71,0-1.61-.64-2.04-.16-.11-.34-.2-.52-.26-.08-.03-.16-.04-.24-.05-.02,0-.04-.02-.06-.02-.12-.1-.24-.2-.38-.3-.37-.26-.84-.42-1.29-.45-.6-.04-1.16.13-1.71.36-1.22-2.53-3.61-4.54-6.48-4.54-2.4,0-4.67.85-6.31,2.37-4.17.19-7.89,2.86-8.28,7.3-.36,4.06,2.96,8.75,7.34,8.75.31,0,.6-.05.9-.08,1.36,2.13,3.86,3.6,5.92,5.07,2.47,1.77,4.96,3.25,7.59,4.75,1.33.76,2.48,1.58,3.96,2.1,1.58.55,3.28.72,4.94.89,1.84.19,3.67.21,5.49.12.41.54.89,1.03,1.52,1.4,1.86,1.09,3.81.61,5.66-.14,1.51-.61,3.37-1.15,4.57-2.32,2.69-2.6,1.58-6.17,1.13-9.42Z"/>
        <path class="cls-4" d="M188.05,96.51c-.11-2.28-.76-4.26-2.22-6.05-.7-.85-1.53-1.62-2.38-2.32-.23-.19-.47-.39-.72-.58-.09-.28-.12-.6-.23-.87-.56-1.35-2.31-1.94-3.33-.69-.7.86-1.34,2.37-1.5,3.64-.62-.1-1.26.04-1.86.6-.45.41-.67.94-.8,1.49-.55.1-1.09.21-1.62.39-.66.22-1.34.51-1.87.97-.53.46-.68,1.14-1.15,1.62-.46.47-1.11.76-1.6,1.21-.64.58-1.13,1.28-1.5,2.05-.39.81-.6,1.68-.71,2.55-.34.15-.63.44-.79.91-.96,2.95-4.92,6.57-2.37,9.79.85,1.07,2.4,1.49,3.43.54.12.11.27.19.41.29-.08.04-.15.07-.23.13-1.37.97-.22,3.08,1.29,2.84.35-.05.69-.07,1.04-.07.13.02.25.04.32.06.39.1.78.19,1.17.27.85.18,1.71.34,2.58.45,1.65.21,3.46.42,5.12.22.93-.11,1.77-.65,2.04-1.49.98.31,2.2-.3,2.69-1.42.39-.88.25-1.86.56-2.75.1-.29.27-.55.43-.82.84-.6,1.67-1.25,2.22-2.13.66-1.05.89-2.29,1.15-3.48.53-2.44.53-4.87.41-7.35ZM183.53,92.76c1.09,1.41,1.28,2.91,1.36,4.65.03.68.01,1.37,0,2.05-.17-.55-.34-1.09-.59-1.61-.11-.51-.35-.95-.73-1.31-.02-.03-.03-.06-.05-.09,0,0-.01.01-.02.02-.1-.09-.16-.21-.27-.29.13-1.17.21-2.34.21-3.53.03.04.07.07.1.1ZM178.73,108.73c-.1.58.02,1.38-.34,1.86-.31.41-.96.55-1.43.65-.57.12-.96.49-1.16.94-.24-.32-.59-.55-1.1-.57-1.43-.05-2.79-1.13-4.17-1.52-.17-.05-.34-.15-.51-.23.26-.35.39-.8.37-1.28-.06-.99-.36-1.93-.45-2.91-.09-.94.1-1.89.38-2.78.19-.61.4-1.25.64-1.87.32-.47.65-.93.99-1.38.21-.09.45-.16.73-.23,1.03-.26,2.07-.53,3.1-.79.31-.08.97-.38,1.3-.32.15.03.59.5.8.64.16.11.32.21.48.33-.13-.1.16.2.07.06.12.2.17.56.19.87.06.89,0,1.85.17,2.76.22,1.17.62,2.29.74,3.47,0,.05,0,.11,0,.16-.34.68-.65,1.35-.79,2.13Z"/>
        <path class="cls-4" d="M314.5,59.64s-21.49-38.3,16.82-49.05"/>
        <path class="cls-4" d="M171.03,186.14s-.87-.7,14.08,3.9,29.89,16.74,40.17,6.93c10.28-9.81,16.35-32.23,22.65-29.89"/>
        <path class="cls-4" d="M375.69,119.27c12.47,3.4,35.58-11.28,7.88-27.49-12.16-7.11,9.87-12.55,9.87-12.55"/>
        <path class="cls-4" d="M210.6,115.42s1.14,12.35,9.52,8.66c19.09-8.41,28.27,7.32,23.15,12.31,0,0,.12,2.56.96,2.56"/>
        <path class="cls-4" d="M452.36,123.57c-9.16,2.05-26.15-6.79-5.79-16.55,8.94-4.28-7.25-7.56-7.25-7.56"/>
        <path class="cls-4" d="M207.06,166.93c-7.74,5.33-26.88,3.18-11.64-13.62,6.69-7.37-9.6-4.52-9.6-4.52"/>
        <path class="cls-4" d="M228.05,101.42s5-2.79,5.98,1.4c2.22,9.56,10.79,8.98,11.23,5.7,0,0-1.62-2.25-.58-2.92"/>
        <path class="cls-4" d="M352.5,35.75c-.44,3.28-9,3.86-11.23-5.7-.97-4.19-5.98-1.4-5.98-1.4"/>
      </g>
    </g>
    <g id="smil">
      <path class="cls-5" d="M279.93,285.9s15.71-15.36,21.31-17.12,6.13-1.34,12.09-2.69,30.83-8,36.26-9.05c5.43-1.05,15.06-1.93,23.82-1.23s27.33-4.03,32.93-4.73,12.61,3.33,15.06,3.33c2.14,0,2.21-.13,2.96,3.58.11.53.23,1.15.37,1.85,0,0,.79.96-.44,2.54s-2.54,4.12-2.19,6.74,2.54,6.83,3.59,8.5,2.01,3.94,1.84,5.87-6.65,31.24-7.57,34.45-.4,4.09-6.61,11.62c0,0-.53,1.14,1.23,4.03,1.75,2.89,4.47,6.22,3.85,7.97-.61,1.75-1.84,1.58-1.31,2.98s-.88,1.23,1.23,2.63-1.84,1.93-3.24,5.08-.18,4.99-.18,4.99c0,0-5.87-2.28-9.55-.88-3.68,1.4-1.84.18-7.88,3.85s-9.2,4.9-10.77,5.25-11.39,1.14-14.45,1.58-6.22,1.93-6.22,1.93c0,0-16.64,3.85-25.92,1.05-9.28-2.8-15.24-2.06-15.24-2.06,0,0-6.31,2.76-7.88,2.23s-15.41-8.23-10.68-19.62"/>
      <g id="taender">
        <path class="cls-1" d="M288.1,284.9s5.25-3.33,7.71-5.25,1.58-3.85,5.78-3.85,7.18,1.05,7.18,1.05l1.93,22.6s.35,1.05,0,1.93-7.36-1.93-8.93-3.68-14.36-10.96-12.96-11.79-.7-1-.7-1Z"/>
        <path class="cls-1" d="M318.41,273.87s4.2-3.8,12.44-3.56c8.23.23,5.17-3.53,9.11-3.44,3.94.09,3.94-.35,3.94.61s-.44,13.22-1.49,18.3-1.66,11.74-1.31,13.66.88,8.06.79,10.95-.35,4.47-.7,5.69-.61,2.1-.61,2.1c0,0-2.36.88-5.17-4.29-2.8-5.17-11.3-21.29-11.91-25.23s-6.04-12.17-5.52-14.1.44-.7.44-.7Z"/>
        <path class="cls-1" d="M360.01,261.6l8.5-.96s.61.79-.7,2.89-1.49,2.4-1.14,3.3.64,2.13,1.98,5.19c1.35,3.07-.49,7.44-.49,7.44,0,0,1.97,26.45.99,27.85s-3.35.53-3.35.53c0,0-5.87-12.09-12.52-22.77-6.66-10.68-4.9-15.15-4.9-15.15,0,0,8.93-.35,10.07-1.23s1.58-7.09,1.58-7.09Z"/>
        <path class="cls-1" d="M347.31,264.46s.21-2.88,7.11-3.19c6.9-.31-5.52,7.86-5.24,3.89s.55,1.87-1.86-.7Z"/>
        <path class="cls-1" d="M378.93,283.41l1.75-.53,2.89,8.23s-2.89-1.49-3.85-4.12-.79-3.59-.79-3.59Z"/>
        <path class="cls-1" d="M373.23,265.34s.64-2.1,3.09-2.92c2.45-.82,5.78-1.75,8.7-1.78s5.9-1.84,5.9-1.84c0,0,4.26-1.93,4.44-1.05s.23,1.4-1.23,2.89-1.75,3.53-1.75,3.53c0,0-.99,4.85-.47,7.06s1.4,6.19,1.69,9.23.93,5.08.47,7.36-.58,4.09-1.63,5.31-1.34,1.52-1.34,1.52c0,0-1.99-1.93-3.5-5.14s-4.96-8.29-4.96-8.29c0,0-3.33-1.05-4.2-6.71-.88-5.66-5.2-8.87-5.2-8.87"/>
        <path class="cls-1" d="M412.47,350.41s-1.05-4.44-5.72-7.82c-4.67-3.39-12.38-15.06-13.78-15.3s-3.5-1.17-3.74-.82,1.28,2.8,1.4,3.97.82,11.68,1.75,14.13,2.92,4.32,2.92,4.32c0,0,.93,1.75,0,3.15s-3.04,3.39-4.79,1.99-11.56-16.82-12.61-18.57-4.2-4.2-4.2-4.2c0,0-2.92,2.69-2.22,4.79s1.4,3.74,2.57,5.49,1.17,5.37.82,7.12-1.2,3.94-1.2,7.01.53,4.03.53,4.03l38.27-9.28Z"/>
        <path class="cls-1" d="M375.07,364.42l12.35-1.75,7.88-4.55s-11.82,1.84-14.63,3.15c-2.8,1.31-2.8,1.58-4.12,1.49s-1.49.44-1.49.44v1.23Z"/>
        <path class="cls-1" d="M365.61,364.42v2.01s-7.88,2.89-10.07,1.05c-2.19-1.84.22-1.23,2.63-1.23s7.44-1.84,7.44-1.84Z"/>
        <path class="cls-1" d="M342.4,366.26s23.12-4.46,24.52-4.11,1.4-1.87.41-2.81-8-7.18-8.93-8.41-5.9-7.42-6.54-8.52-3.33.63-3.33.63c0,0-1.99,5.21-2.45,7.95s-1.28,5.96-1.75,7.59-1.93,7.68-1.93,7.68Z"/>
        <path class="cls-1" d="M332.64,364.56s-5.52-16.2-7.66-18.83l-2.15-2.63s-1.01.74-1.58,1.93-2.23,4.99-2.23,4.99c0,0-.09.92-1.01,1.58s-2.67,1.36-2.98,2.23-1.4,2.1-1.27,3.94.22,2.15.88,2.8,1.05,1.36,2.67,1.84,14.98,2.15,14.98,2.15h.35Z"/>
        <path class="cls-1" d="M314.64,365.91s2.06,1.45,3.24,1.75,3.15-.39,3.15-.39c0,0,.88,1.14.22,1.05s-3.15.54-4.34,0-2.28-2.06-2.28-2.06"/>
        <path class="cls-1" d="M402.19,329.04s1.28-.58,2.1,1.05,1.63,3.5,1.63,3.5c0,0-2.22.7-2.92-.7s-1.81-3.83-.82-3.85Z"/>
      </g>
    </g>
  </g>
</svg>