<?xml version="1.0" encoding="UTF-8"?>
<svg id="Layer_2" data-name="Layer 2" xmlns="http://www.w3.org/2000/svg" viewBox="0 0 122.37 54.63">
  <defs>
    <style>
      .cls-1 {
        fill: #ecffd4;
        stroke: none;
        border-radius: 4px;
      }
    </style>
  </defs>
  <path class="cls-1" d="M0,54.63V0h122.37v54.63H0ZM99.96,51.04l4.2-.89,4.39-.89,4.05-.81,5.9-1.18c.06-1.42-.35-3.13-.68-4.71l-4.31-21.01-20.19,4.13.62-4.05c.39-2.1.62-3.74.77-5.99l-4.75-.81-5.05-.82-4.88-.79-4.95-.81c-1.46-.24-3.24-.68-4.69-.51-.51,1.48-.71,3.06-.93,4.51l-.83,5.39c-.18,1.16-.48,2.44-.72,3.53-.15-2.15-.24-4.44-.68-6.29l-5.65.34-5.71.32c-1.31.07-2.9.17-3.72-.24l1.75-5.25c.47-1.43.95-3.17,1.24-4.44l-6.85-2.05-4.31-1.36-5-1.58-3.79-1.19c-1.22-.38-2.72-.81-3.78-1.06l-1.38,4.15c-.49,1.47-.83,3-1.21,4.39-.56-1.68-1.74-1.44-3.13-1.51l-22.38-1.03-.19,6.54-.95,19.58,19.12.91,5.58.34c.99-3.18-.14-4.65.91-7.22l4.26,1.35,4.33,1.37c2.29.73,4.23,1.31,6.8,1.91l.39,7.06c1.56.07,3.46,0,5.24-.08l4.26-.2,4.64-.22,4.33-.2,5.05-.24,1.14-.03c.2,0,.23-.83.34-1.36,1.25.03,3,.28,4.51.52l5.27.86,4.51.74,5.66.95c.39.07,1.71.26,1.92-.07l.98-1.53c.58,1.89.9,3.47,1.31,5.28l1.7,7.52,5.55-1.28Z"/>
  <path d="M99.96,51.04l-5.55,1.28-1.7-7.52c-.41-1.81-.73-3.39-1.31-5.28l-.98,1.53c-.21.33-1.52.13-1.92.07l-5.66-.95-4.51-.74-5.27-.86c-1.51-.25-3.26-.49-4.51-.52-.11.53-.14,1.35-.34,1.36l-1.14.03-5.05.24-4.33.2-4.64.22-4.26.2c-1.78.08-3.69.15-5.24.08l-.39-7.06c-2.57-.6-4.51-1.19-6.8-1.91l-4.33-1.37-4.26-1.35c-1.05,2.56.08,4.03-.91,7.22l-5.58-.34-19.12-.91.95-19.58.19-6.54,22.38,1.03c1.4.06,2.58-.17,3.13,1.51.38-1.4.72-2.93,1.21-4.39l1.38-4.15c1.06.25,2.56.68,3.78,1.06l3.79,1.19,5,1.58,4.31,1.36,6.85,2.05c-.28,1.27-.76,3.02-1.24,4.44l-1.75,5.25c.82.41,2.4.31,3.72.24l5.71-.32,5.65-.34c.44,1.86.53,4.14.68,6.29.24-1.1.54-2.37.72-3.53l.83-5.39c.22-1.45.42-3.03.93-4.51,1.46-.17,3.24.27,4.69.51l4.95.81,4.88.79,5.05.82,4.75.81c-.15,2.25-.37,3.89-.77,5.99l-.62,4.05,20.19-4.13,4.31,21.01c.32,1.58.74,3.3.68,4.71l-5.9,1.18-4.05.81-4.39.89-4.2.89ZM37.95,20.57c.28-.42,1.78.66,2.24.93.3.17,1-.5,1.18-.81.95-1.6-2.48-.95-2.84-2.62.88-3.11,3.7.58,4.95-1.64.23-.4-.47-1.28-1.01-1.38l-5.15-.94-1.95,5.2-1.81,4.83,5.33,2.43c.71.33,1.84-2.15,1.28-2.54l-3.52-1.23,1.3-2.22ZM18.44,27.9c-.07-1.15-.33-2.8-.45-3.73l-.59-4.88,1.53-.42c.36-.1,1.02-.55,1.25-.82.19-.22-.06-1.23-.35-1.24-1.52-.08-6.38.13-7.76.76-.44.2-.02,2.03.46,1.98l2.15-.25c.3,1.39.51,3.42.65,5.08l.4,4.52c.49.14,2.74-.27,2.7-1.01ZM81.75,29.81l.87,3.09,2.69-.58-1.17-3.84-1.3-4.32c-.28-.94-.64-2.78-1.71-3.19l-4.73,1.18-.45,5.99c-.16,2.12-.17,3.83-.2,6.17l2.81-.59-.03-3.23,3.22-.68ZM57.67,36.11c.47.18,1.94-.03,2.06-.42s.22-1.28.04-1.72l-1.51-3.67c1.66-.98,2.6-2.28,2.06-3.88s-1.81-2.3-3.59-2.36l-4.4-.13-.37,10.96c-.02.66,1.36,1.39,1.98,1.21,2.29-.65-.93-5.25,2.12-6.07l1.6,6.08ZM106.82,42.33l1.38-10.21c.12-.89-2.45-1.63-2.53-.87l-.42,4.19c-.4.43-2.37.37-2.62-.2-.43-.99-.15-2.96.02-4.17-.08-.51-2.2-.7-2.39-.13-.4,1.28-.64,3.5-.66,4.93l-.07,5.96,2.29.45c.26-1.27.41-2.78.39-4.12-.02-.65,1.77-.74,2.28-.33,1.43,1.15-.82,3.74.47,4.57.5.32,1.79.4,1.85-.07Z"/>
  <path class="cls-1" d="M81.75,29.81l-3.22.68.03,3.23-2.81.59c.02-2.35.04-4.05.2-6.17l.45-5.99,4.73-1.18c1.07.41,1.43,2.25,1.71,3.19l1.3,4.32,1.17,3.84-2.69.58-.87-3.09ZM78.66,28.48l2.77-.95-.97-4.05c-.16-.31-2.01.39-2.07,1.08-.09,1.08.07,2.65.27,3.92Z"/>
  <path class="cls-1" d="M57.67,36.11l-1.6-6.08c-3.05.82.17,5.42-2.12,6.07-.62.18-2.01-.55-1.98-1.21l.37-10.96,4.4.13c1.78.05,3.04.71,3.59,2.36s-.4,2.9-2.06,3.88l1.51,3.67c.18.44.08,1.32-.04,1.72s-1.59.6-2.06.42ZM57.57,26.01c-.82-.29-2.32-.3-2.67.17s-.51,1.97-.08,2.25c1.02.68,2.61.46,3.32-.67.23-.38-.14-1.6-.57-1.75Z"/>
  <path class="cls-1" d="M106.82,42.33c-.06.47-1.35.39-1.85.07-1.29-.83.96-3.42-.47-4.57-.51-.41-2.3-.32-2.28.33.02,1.34-.13,2.84-.39,4.12l-2.29-.45.07-5.96c.02-1.44.25-3.66.66-4.93.18-.57,2.31-.38,2.39.13-.18,1.22-.46,3.18-.02,4.17.25.57,2.22.63,2.62.2l.42-4.19c.08-.76,2.65-.02,2.53.87l-1.38,10.21Z"/>
  <path class="cls-1" d="M37.95,20.57l-1.3,2.22,3.52,1.23c.57.39-.56,2.87-1.28,2.54l-5.33-2.43,1.81-4.83,1.95-5.2,5.15.94c.54.1,1.23.98,1.01,1.38-1.26,2.22-4.08-1.47-4.95,1.64.36,1.67,3.79,1.03,2.84,2.62-.18.31-.88.99-1.18.81-.45-.27-1.95-1.35-2.24-.93Z"/>
  <path class="cls-1" d="M18.44,27.9c.05.74-2.21,1.15-2.7,1.01l-.4-4.52c-.15-1.67-.35-3.69-.65-5.08l-2.15.25c-.48.05-.9-1.78-.46-1.98,1.37-.63,6.23-.84,7.76-.76.29.01.54,1.02.35,1.24-.23.27-.89.72-1.25.82l-1.53.42.59,4.88c.11.93.37,2.58.45,3.73Z"/>
  <path d="M78.66,28.48c-.2-1.27-.36-2.83-.27-3.92.06-.7,1.91-1.4,2.07-1.08l.97,4.05-2.77.95Z"/>
  <path d="M57.57,26.01c.42.15.8,1.37.57,1.75-.71,1.14-2.3,1.36-3.32.67-.43-.29-.25-1.8.08-2.25s1.85-.46,2.67-.17Z"/>
</svg>
