<svg width="252" height="92" viewBox="0 0 252 92" fill="none" xmlns="http://www.w3.org/2000/svg">
<g clip-path="url(#clip0_325_2235)">
<path d="M203.916 78.357C203.445 78.929 202.857 79.4925 202.151 80.0477C201.445 80.6028 200.596 81.1075 199.604 81.5617C198.628 81.9991 197.51 82.3523 196.25 82.6215C194.989 82.8738 193.576 83 192.013 83C189.474 83 187.221 82.5206 185.254 81.5617C183.287 80.586 181.749 79.1477 180.639 77.2467C179.546 75.329 179 72.9486 179 70.1056C179 67.2626 179.572 64.7897 180.715 62.6869C181.858 60.5673 183.455 58.9271 185.506 57.7664C187.558 56.5888 189.953 56 192.694 56C196.157 56 198.881 56.9673 200.865 58.9019C202.865 60.8196 203.908 63.4776 203.992 66.8757C204.008 67.4981 204 68.0617 203.966 68.5664C203.933 69.071 203.866 69.6093 203.765 70.1813C203.512 70.1645 202.974 70.1477 202.151 70.1308C201.327 70.114 200.394 70.0972 199.351 70.0804C198.326 70.0467 197.351 70.0215 196.426 70.0047C195.518 69.9879 194.846 69.9794 194.409 69.9794C192.946 69.9794 191.525 70.0467 190.147 70.1813C188.785 70.3159 187.642 70.4589 186.717 70.6103C186.717 70.9131 186.734 71.2159 186.767 71.5187C186.818 71.8047 186.885 72.0822 186.969 72.3514C187.188 73.0411 187.566 73.6299 188.104 74.1178C188.659 74.6056 189.314 74.9841 190.071 75.2533C190.844 75.5056 191.66 75.6318 192.517 75.6318C193.291 75.6318 193.997 75.5393 194.636 75.3542C195.291 75.1523 195.888 74.8916 196.426 74.572C196.964 74.2523 197.452 73.9075 197.889 73.5374C198.343 73.1505 198.763 72.772 199.15 72.4019C199.251 72.486 199.511 72.7383 199.931 73.1589C200.352 73.5626 200.822 74.0673 201.344 74.6729C201.865 75.2617 202.361 75.8841 202.832 76.5402C203.302 77.1963 203.664 77.8019 203.916 78.357ZM186.994 65.8916C187.751 65.7738 188.684 65.6645 189.794 65.5636C190.903 65.4626 192.189 65.4121 193.652 65.4121C194.442 65.4121 195.14 65.4206 195.745 65.4374C196.367 65.4542 196.804 65.471 197.056 65.4879C197.056 65.1346 197.006 64.7477 196.905 64.3271C196.771 63.7551 196.502 63.2084 196.098 62.6869C195.712 62.1654 195.207 61.7449 194.585 61.4252C193.98 61.1056 193.248 60.9458 192.391 60.9458C191.315 60.9458 190.374 61.1813 189.567 61.6523C188.776 62.1234 188.163 62.7374 187.726 63.4944C187.289 64.2514 187.045 65.0505 186.994 65.8916Z" fill="#FCF7E5"/>
<path d="M174.916 78.357C174.445 78.929 173.857 79.4925 173.151 80.0477C172.445 80.6028 171.596 81.1075 170.604 81.5617C169.628 81.9991 168.51 82.3523 167.25 82.6215C165.989 82.8738 164.576 83 163.013 83C160.474 83 158.221 82.5206 156.254 81.5617C154.287 80.586 152.749 79.1477 151.639 77.2467C150.546 75.329 150 72.9486 150 70.1056C150 67.2626 150.572 64.7897 151.715 62.6869C152.858 60.5673 154.455 58.9271 156.506 57.7664C158.558 56.5888 160.953 56 163.694 56C167.157 56 169.881 56.9673 171.865 58.9019C173.865 60.8196 174.908 63.4776 174.992 66.8757C175.008 67.4981 175 68.0617 174.966 68.5664C174.933 69.071 174.866 69.6093 174.765 70.1813C174.512 70.1645 173.974 70.1477 173.151 70.1308C172.327 70.114 171.394 70.0972 170.351 70.0804C169.326 70.0467 168.351 70.0215 167.426 70.0047C166.518 69.9879 165.846 69.9794 165.409 69.9794C163.946 69.9794 162.525 70.0467 161.147 70.1813C159.785 70.3159 158.642 70.4589 157.717 70.6103C157.717 70.9131 157.734 71.2159 157.767 71.5187C157.818 71.8047 157.885 72.0822 157.969 72.3514C158.188 73.0411 158.566 73.6299 159.104 74.1178C159.659 74.6056 160.314 74.9841 161.071 75.2533C161.844 75.5056 162.66 75.6318 163.517 75.6318C164.291 75.6318 164.997 75.5393 165.636 75.3542C166.291 75.1523 166.888 74.8916 167.426 74.572C167.964 74.2523 168.452 73.9075 168.889 73.5374C169.343 73.1505 169.763 72.772 170.15 72.4019C170.251 72.486 170.511 72.7383 170.931 73.1589C171.352 73.5626 171.822 74.0673 172.344 74.6729C172.865 75.2617 173.361 75.8841 173.832 76.5402C174.302 77.1963 174.664 77.8019 174.916 78.357ZM157.994 65.8916C158.751 65.7738 159.684 65.6645 160.794 65.5636C161.903 65.4626 163.189 65.4121 164.652 65.4121C165.442 65.4121 166.14 65.4206 166.745 65.4374C167.367 65.4542 167.804 65.471 168.056 65.4879C168.056 65.1346 168.006 64.7477 167.905 64.3271C167.771 63.7551 167.502 63.2084 167.098 62.6869C166.712 62.1654 166.207 61.7449 165.585 61.4252C164.98 61.1056 164.248 60.9458 163.391 60.9458C162.315 60.9458 161.374 61.1813 160.567 61.6523C159.776 62.1234 159.163 62.7374 158.726 63.4944C158.289 64.2514 158.045 65.0505 157.994 65.8916Z" fill="#FCF7E5"/>
<path d="M134.906 82.8894C134.756 82.1236 134.547 80.9749 134.28 79.4434C134.03 77.9118 133.755 76.1931 133.454 74.2872C133.171 72.3812 132.887 70.4668 132.603 68.5438C132.32 66.6039 132.086 64.8341 131.902 63.2345C131.735 61.6178 131.652 60.367 131.652 59.4822C131.652 57.1338 132.002 55.0236 132.703 53.1517C133.421 51.2628 134.497 49.7653 135.932 48.6592C137.384 47.5531 139.203 47 141.389 47C142.641 47 143.759 47.1787 144.743 47.536C145.728 47.8934 146.579 48.3359 147.297 48.8634C148.014 49.3909 148.598 49.9185 149.049 50.446C149.516 50.9565 149.833 51.3649 150 51.6712C149.85 51.8925 149.591 52.2753 149.224 52.8199C148.857 53.3474 148.456 53.9175 148.023 54.5301C147.605 55.1428 147.222 55.7043 146.871 56.2148C146.521 56.7254 146.287 57.0572 146.17 57.2103C146.07 57.0402 145.912 56.7934 145.695 56.4701C145.478 56.1468 145.202 55.832 144.869 55.5256C144.535 55.2023 144.134 54.93 143.667 54.7088C143.2 54.4876 142.666 54.377 142.065 54.377C141.381 54.377 140.839 54.5897 140.438 55.0151C140.054 55.4406 139.779 55.9936 139.612 56.6743C139.445 57.355 139.362 58.0953 139.362 58.8951C139.362 59.8821 139.437 61.2264 139.587 62.9281C139.754 64.6129 139.962 66.4507 140.213 68.4417C140.48 70.4328 140.747 72.3812 141.014 74.2872C141.297 76.1931 141.548 77.8693 141.765 79.3158C141.998 80.7452 142.174 81.7407 142.29 82.3023C141.957 82.3363 141.439 82.3874 140.738 82.4554C140.038 82.5235 139.287 82.5916 138.486 82.6597C137.685 82.7107 136.95 82.7618 136.283 82.8128C135.615 82.8639 135.156 82.8894 134.906 82.8894ZM116.383 82.7362C116.166 81.6471 115.924 80.3708 115.657 78.9073C115.407 77.4268 115.156 75.8698 114.906 74.2361C114.656 72.5854 114.422 70.9688 114.205 69.3862C113.988 67.8036 113.813 66.3571 113.68 65.0468C113.563 63.7194 113.504 62.6389 113.504 61.805C113.504 59.3375 113.863 57.2529 114.581 55.5512C115.298 53.8324 116.383 52.5306 117.835 51.6457C119.303 50.7438 121.164 50.2928 123.417 50.2928C124.585 50.2928 125.603 50.429 126.471 50.7012C127.338 50.9735 128.056 51.2798 128.623 51.6202C129.191 51.9605 129.574 52.2243 129.775 52.4115C129.658 52.6667 129.474 53.1262 129.224 53.7899C128.974 54.4365 128.698 55.1598 128.398 55.9596C128.114 56.7424 127.864 57.4826 127.647 58.1803C127.43 58.861 127.288 59.3715 127.222 59.7119C127.021 59.5758 126.763 59.4226 126.446 59.2524C126.128 59.0652 125.778 58.9121 125.394 58.793C125.027 58.6738 124.627 58.6143 124.193 58.6143C123.458 58.6143 122.874 58.793 122.441 59.1503C122.023 59.5077 121.731 60.0012 121.564 60.6308C121.398 61.2434 121.314 61.9497 121.314 62.7495C121.314 63.4642 121.389 64.4852 121.539 65.8126C121.706 67.1229 121.915 68.5864 122.165 70.203C122.432 71.8026 122.716 73.4278 123.016 75.0785C123.333 76.7121 123.625 78.2267 123.892 79.6221C124.159 81.0175 124.376 82.1406 124.543 82.9915C124.143 83.0085 123.559 83 122.791 82.966C122.023 82.9489 121.197 82.9319 120.313 82.9149C119.445 82.8809 118.652 82.8468 117.935 82.8128C117.217 82.7788 116.7 82.7533 116.383 82.7362ZM110.726 73.7001C110.609 73.4278 110.492 72.9513 110.375 72.2706C110.275 71.5899 110.184 70.8582 110.1 70.0754C110.033 69.2756 110 68.5694 110 67.9567C110 67.6334 110 67.3526 110 67.1144C110.017 66.8591 110.033 66.6634 110.05 66.5273C112.603 66.0678 115.448 65.6594 118.586 65.3021C121.723 64.9447 124.944 64.6384 128.248 64.3831C131.569 64.1279 134.781 63.9322 137.885 63.796C140.989 63.6429 143.767 63.5663 146.22 63.5663C146.27 63.7535 146.329 64.1704 146.395 64.8171C146.462 65.4467 146.521 66.1444 146.571 66.9102C146.637 67.676 146.688 68.3822 146.721 69.0288C146.771 69.6755 146.796 70.1094 146.796 70.3307C144.76 70.3307 142.507 70.3902 140.038 70.5093C137.568 70.6114 135.006 70.7731 132.353 70.9943C129.7 71.2156 127.063 71.4708 124.443 71.7601C121.84 72.0324 119.362 72.3387 117.009 72.679C114.656 73.0024 112.562 73.3427 110.726 73.7001Z" fill="#FCF7E5"/>
<path d="M89 83.7265C87.9014 85.139 86.5502 86.4731 84.9463 87.7287C83.3644 88.9843 81.5628 90.0157 79.5414 90.8229C77.5201 91.6076 75.312 92 72.9171 92C69.8632 92 67.1607 91.4507 64.8098 90.352C62.4589 89.2309 60.4815 87.6502 58.8776 85.6099C57.2737 83.5695 56.0543 81.1704 55.2194 78.4126C54.4065 75.6323 54 72.5942 54 69.2982C54 65.0157 54.725 61.1928 56.1751 57.8296C57.6252 54.4664 59.7345 51.8206 62.5028 49.8924C65.2712 47.9641 68.6547 47 72.6535 47C75.9052 47 78.9152 47.7063 81.6836 49.1188C84.4739 50.509 86.6601 52.6054 88.242 55.4081C87.6488 56.0807 86.8578 56.8318 85.8691 57.6614C84.9024 58.4686 83.9137 59.2534 82.903 60.0157C81.9143 60.7556 81.0574 61.361 80.3324 61.8318C80.2445 61.5852 80.0248 61.1704 79.6732 60.5874C79.3437 60.0045 78.8823 59.3879 78.2891 58.7377C77.6958 58.0874 76.9488 57.5381 76.048 57.0897C75.1472 56.6188 74.0926 56.3834 72.8842 56.3834C71.7417 56.3834 70.709 56.6749 69.7862 57.2578C68.8635 57.8184 68.0725 58.6368 67.4134 59.713C66.7542 60.7892 66.2489 62.0673 65.8974 63.5471C65.5458 65.0269 65.37 66.6749 65.37 68.491C65.37 70.2175 65.5238 71.8431 65.8314 73.3677C66.139 74.8924 66.5894 76.2489 67.1827 77.4372C67.7759 78.6031 68.5339 79.5112 69.4567 80.1614C70.4014 80.8117 71.489 81.1368 72.7194 81.1368C73.9278 81.1368 75.0593 80.9126 76.1139 80.4641C77.1686 79.9933 78.1572 79.3767 79.08 78.6143C80.0028 77.852 80.8487 77.0336 81.6177 76.1592C82.4087 76.7197 83.2875 77.4372 84.2542 78.3117C85.221 79.1861 86.1328 80.1054 86.9896 81.0695C87.8685 82.0336 88.5386 82.9193 89 83.7265Z" fill="#FCF7E5"/>
<path d="M90.831 60.6163C95.3011 58.5508 97.8672 63.0134 98.3818 64.006L94.9999 65.0001C94.9891 65.0059 94.3572 65.3442 93.6054 65.8282C93.5522 65.5952 93.4929 65.3767 93.4267 65.1593C93.2678 64.6431 93.0895 64.1507 92.8915 63.6554C92.8688 63.5994 92.8489 63.5486 92.8222 63.4874C92.7207 63.2392 92.53 63.0568 92.2724 62.9923C92.0159 62.9272 91.7133 62.9852 91.4511 63.1417C91.189 63.2983 90.9939 63.5373 90.9296 63.7941C90.8644 64.0514 90.9342 64.3059 91.1044 64.5128C91.1334 64.5453 91.169 64.5892 91.2021 64.63C91.5052 65.0069 91.8014 65.3995 92.0683 65.7931C92.2011 65.9899 92.3266 66.1872 92.4326 66.379C92.47 66.4462 92.5025 66.5156 92.5322 66.5773C92.0956 66.9128 91.6971 67.2685 91.4335 67.6085C90.4993 68.8138 89.7253 70.3832 89.4999 72.1368C89.2761 73.8793 90.0553 76.594 90.0654 76.629C86.5292 74.1804 82.976 64.2463 90.831 60.6163Z" fill="#FCF7E5"/>
<path d="M93.8985 68.0449C97.3185 64.5499 102.404 63.9799 105.257 66.7715C108.11 69.563 107.65 74.6592 104.23 78.1543C100.811 81.6494 95.7251 82.22 92.8721 79.4287C90.0191 76.6371 90.4785 71.5401 93.8985 68.0449ZM102.789 68.5049C102.376 68.4829 102.022 68.8005 102 69.2139C101.992 69.3585 101.992 69.4568 101.994 69.5664C101.996 69.6705 101.999 69.7772 101.999 69.9648C101.999 69.9649 101.998 69.9881 101.982 70.0391C101.967 70.0895 101.941 70.1504 101.905 70.2236C101.869 70.2987 101.83 70.3681 101.785 70.4521C101.759 70.5003 101.722 70.5728 101.688 70.6494C101.672 70.6651 101.647 70.6894 101.61 70.7197C101.51 70.8021 101.372 70.8991 101.222 70.9961C101.075 71.091 100.928 71.1777 100.818 71.2412C100.764 71.2727 100.718 71.2982 100.688 71.3154C100.675 71.3227 100.664 71.3288 100.656 71.333L100.654 71.334L100.652 71.335L100.649 71.3369L100.647 71.3379L100.645 71.3389L100.643 71.3398L100.641 71.3408L100.639 71.3418L100.636 71.3438L100.634 71.3447L100.631 71.3457L100.63 71.3467L100.628 71.3477H100.626L100.624 71.3496H100.622L100.621 71.3506L100.619 71.3516L100.618 71.3525L100.615 71.3535L100.614 71.3545H100.612L100.611 71.3555L100.609 71.3564L100.608 71.3574L100.606 71.3584L100.604 71.3594L100.6 71.3613L100.599 71.3623L100.597 71.3633H100.595L100.594 71.3643L100.586 71.3682L100.585 71.3691L100.577 71.373H100.575L100.564 71.3789L100.562 71.3809L100.554 71.3848L100.551 71.3857L100.543 71.3896L100.54 71.3906L100.538 71.3926L100.534 71.3945L100.531 71.3955L100.529 71.3965L100.526 71.3975L100.524 71.3994L100.522 71.4004L100.52 71.4014L100.518 71.4023L100.515 71.4033L100.513 71.4053L100.51 71.4062L100.508 71.4072L100.505 71.4082L100.503 71.4102L100.5 71.4111L100.498 71.4121L100.495 71.4141L100.492 71.415L100.49 71.416L100.487 71.417L100.485 71.4189L100.482 71.4199L100.48 71.4219L100.477 71.4229L100.475 71.4238L100.472 71.4258L100.466 71.4277L100.464 71.4297L100.461 71.4307L100.458 71.4326L100.455 71.4336L100.452 71.4355L100.446 71.4375L100.443 71.4395L100.44 71.4404L100.439 71.4424L100.436 71.4434L100.433 71.4453L100.43 71.4463L100.427 71.4482C100.426 71.4486 100.424 71.4489 100.423 71.4492L100.42 71.4512L100.417 71.4521L100.411 71.4561L100.408 71.457C100.407 71.4575 100.406 71.4585 100.405 71.459L100.402 71.46L100.399 71.4619C100.398 71.4623 100.397 71.4625 100.396 71.4629L100.39 71.4668L100.387 71.4678L100.383 71.4697L100.38 71.4707L100.374 71.4746C100.373 71.475 100.371 71.4752 100.37 71.4756L100.364 71.4795C100.363 71.4799 100.361 71.4801 100.36 71.4805C100.36 71.4809 100.358 71.4819 100.357 71.4824L100.354 71.4844L100.351 71.4863L100.348 71.4873L100.344 71.4893C100.343 71.4897 100.342 71.4907 100.341 71.4912C100.34 71.4916 100.338 71.4918 100.337 71.4922C100.336 71.4927 100.335 71.4936 100.334 71.4941L100.33 71.4961C100.329 71.4966 100.328 71.4975 100.327 71.498C100.326 71.4985 100.324 71.4986 100.323 71.499C100.322 71.4995 100.321 71.5005 100.32 71.501L100.316 71.5029C100.316 71.5034 100.314 71.5044 100.314 71.5049L100.31 71.5068C100.309 71.5073 100.307 71.5074 100.306 71.5078C100.305 71.5083 100.304 71.5092 100.303 71.5098L100.295 71.5137C100.294 71.5142 100.293 71.5151 100.292 71.5156L100.288 71.5176C100.287 71.518 100.285 71.5182 100.284 71.5186C100.283 71.519 100.282 71.52 100.281 71.5205L100.273 71.5244C100.273 71.5249 100.271 71.5259 100.271 71.5264L100.263 71.5303C100.262 71.5307 100.26 71.5308 100.259 71.5312L100.255 71.5332C100.254 71.5337 100.253 71.5346 100.252 71.5352L100.221 71.5508C100.22 71.5513 100.219 71.5522 100.218 71.5527L100.19 71.5664C100.189 71.567 100.187 71.5678 100.186 71.5684L100.154 71.584C100.153 71.5846 100.151 71.5853 100.149 71.5859L100.146 71.5879C100.144 71.5886 100.143 71.5901 100.142 71.5908L100.134 71.5947C100.133 71.5953 100.13 71.5961 100.129 71.5967L100.117 71.6025C100.116 71.6032 100.114 71.6039 100.112 71.6045C100.111 71.6052 100.11 71.6067 100.108 71.6074L100.105 71.6094C100.103 71.61 100.101 71.6107 100.1 71.6113L100.092 71.6152C100.091 71.6159 100.088 71.6166 100.087 71.6172C100.086 71.6179 100.084 71.6194 100.083 71.6201C100.082 71.6207 100.08 71.6214 100.078 71.6221L100.07 71.626C100.069 71.6266 100.067 71.6273 100.065 71.6279C100.064 71.6286 100.063 71.6301 100.062 71.6309C100.06 71.6315 100.058 71.6322 100.057 71.6328L100.053 71.6348C100.051 71.6354 100.049 71.6361 100.048 71.6367C100.047 71.6374 100.045 71.6389 100.044 71.6396C100.043 71.6403 100.04 71.641 100.039 71.6416L100.035 71.6436C100.034 71.6442 100.032 71.6449 100.03 71.6455C100.029 71.6462 100.028 71.6477 100.026 71.6484C100.025 71.6491 100.023 71.6498 100.022 71.6504L100.018 71.6523C100.016 71.653 100.014 71.6536 100.013 71.6543C100.011 71.655 100.01 71.6565 100.009 71.6572C100.007 71.6579 100.005 71.6585 100.004 71.6592L100 71.6611C99.9987 71.6619 99.9966 71.6633 99.9951 71.6641C99.9938 71.6647 99.9917 71.6654 99.9903 71.666L99.9864 71.668C99.985 71.6687 99.9829 71.6701 99.9815 71.6709C99.9801 71.6715 99.978 71.6722 99.9766 71.6729L99.9727 71.6748C99.9713 71.6755 99.9692 71.677 99.9678 71.6777C99.9665 71.6784 99.9643 71.679 99.9629 71.6797L99.959 71.6816C99.9576 71.6824 99.9556 71.6838 99.9541 71.6846L99.9444 71.6885C99.9431 71.6892 99.9417 71.6907 99.9405 71.6914L99.9307 71.6953C99.9293 71.6961 99.9273 71.6975 99.9258 71.6982L99.9219 71.7002C99.9205 71.7009 99.9185 71.7023 99.917 71.7031L99.9073 71.707C99.9058 71.7078 99.9038 71.7092 99.9024 71.71L99.8985 71.7119C99.8971 71.7126 99.895 71.7141 99.8936 71.7148C99.8922 71.7155 99.8901 71.7161 99.8887 71.7168C99.8873 71.7175 99.8853 71.7189 99.8838 71.7197L99.8741 71.7236C99.8726 71.7244 99.8706 71.7258 99.8692 71.7266C99.8678 71.7272 99.8657 71.7279 99.8643 71.7285C99.863 71.7292 99.8616 71.7307 99.8604 71.7314C99.859 71.7321 99.8569 71.7328 99.8555 71.7334C99.8541 71.7341 99.8521 71.7356 99.8506 71.7363C99.8492 71.737 99.8471 71.7376 99.8457 71.7383C99.8443 71.739 99.8423 71.7404 99.8409 71.7412C99.8394 71.7419 99.8374 71.7425 99.836 71.7432C99.8345 71.7439 99.8326 71.7453 99.8311 71.7461C99.8297 71.7468 99.8276 71.7474 99.8262 71.748C99.8247 71.7488 99.8228 71.7502 99.8213 71.751C99.8199 71.7517 99.8179 71.7523 99.8164 71.7529C99.815 71.7537 99.813 71.7551 99.8116 71.7559C99.8101 71.7565 99.8081 71.7571 99.8067 71.7578C99.8052 71.7586 99.8033 71.76 99.8018 71.7607C99.8004 71.7614 99.7983 71.762 99.7969 71.7627C99.7955 71.7634 99.7935 71.7648 99.792 71.7656C99.7906 71.7663 99.7886 71.7669 99.7871 71.7676C99.7857 71.7683 99.7837 71.7697 99.7823 71.7705C99.7807 71.7712 99.778 71.7718 99.7764 71.7725C99.775 71.7732 99.773 71.7746 99.7715 71.7754C99.7701 71.7761 99.7681 71.7767 99.7666 71.7773L99.7569 71.7832C99.7554 71.7839 99.7534 71.7845 99.752 71.7852C99.7505 71.7859 99.7486 71.7873 99.7471 71.7881C99.7457 71.7888 99.7437 71.7894 99.7422 71.79L99.7364 71.793C99.735 71.7936 99.7329 71.7943 99.7315 71.7949L99.7217 71.8008C99.7203 71.8015 99.7183 71.8021 99.7168 71.8027C99.7154 71.8035 99.7134 71.8049 99.7119 71.8057C99.7104 71.8064 99.7077 71.8069 99.7061 71.8076L99.6963 71.8135C99.6949 71.8142 99.6929 71.8148 99.6914 71.8154L99.6856 71.8184C99.6842 71.819 99.6821 71.8196 99.6807 71.8203L99.6709 71.8262C99.6693 71.8269 99.6667 71.8274 99.6651 71.8281L99.6553 71.834C99.6539 71.8347 99.6519 71.8353 99.6504 71.8359L99.6446 71.8389C99.6431 71.8396 99.6412 71.841 99.6397 71.8418C99.6383 71.8425 99.6362 71.8431 99.6348 71.8438L99.6289 71.8467C99.6274 71.8475 99.6256 71.8488 99.6241 71.8496C99.6226 71.8503 99.6206 71.8509 99.6192 71.8516L99.6133 71.8545C99.6118 71.8553 99.6099 71.8566 99.6084 71.8574C99.607 71.8581 99.605 71.8587 99.6035 71.8594L99.5977 71.8623C99.5962 71.8631 99.5943 71.8644 99.5928 71.8652C99.5912 71.866 99.5886 71.8664 99.5869 71.8672L99.5772 71.873C99.5755 71.8738 99.573 71.8743 99.5713 71.875C99.5698 71.8758 99.568 71.8771 99.5664 71.8779L99.5606 71.8809C99.5591 71.8816 99.5572 71.883 99.5557 71.8838C99.5543 71.8845 99.5523 71.8851 99.5508 71.8857L99.545 71.8887C99.5434 71.8895 99.5416 71.8908 99.5401 71.8916L99.5342 71.8945C99.5328 71.8952 99.5308 71.8958 99.5293 71.8965L99.5235 71.8994C99.5219 71.9002 99.5201 71.9015 99.5186 71.9023C99.5169 71.9031 99.5144 71.9035 99.5127 71.9043C99.5112 71.9051 99.5094 71.9064 99.5078 71.9072L99.502 71.9102C99.5005 71.9109 99.4986 71.9123 99.4971 71.9131C99.4954 71.9139 99.4929 71.9143 99.4912 71.915C99.4897 71.9158 99.4879 71.9172 99.4864 71.918L99.4805 71.9209C99.479 71.9217 99.4772 71.923 99.4756 71.9238L99.4698 71.9268C99.4683 71.9274 99.4663 71.928 99.4649 71.9287L99.4532 71.9346C99.4516 71.9354 99.4498 71.9367 99.4483 71.9375C99.4466 71.9383 99.4441 71.9387 99.4424 71.9395C99.4409 71.9402 99.4391 71.9416 99.4375 71.9424L99.4317 71.9453C99.4301 71.9461 99.4283 71.9474 99.4268 71.9482L99.4209 71.9512C99.4193 71.9519 99.4168 71.9524 99.4151 71.9531C99.4135 71.9539 99.4117 71.9552 99.4102 71.9561L99.3985 71.9619C99.3969 71.9627 99.3951 71.964 99.3936 71.9648C99.3919 71.9656 99.3894 71.966 99.3877 71.9668C99.3862 71.9676 99.3844 71.9689 99.3828 71.9697L99.3711 71.9756C99.3696 71.9764 99.3678 71.9777 99.3662 71.9785L99.3604 71.9814C99.3587 71.9822 99.3562 71.9826 99.3545 71.9834C99.353 71.9842 99.3512 71.9855 99.3496 71.9863L99.3379 71.9922C99.3364 71.993 99.3346 71.9943 99.333 71.9951L99.3213 72.001C99.3197 72.0017 99.3171 72.0022 99.3155 72.0029C99.3139 72.0037 99.3121 72.005 99.3106 72.0059L99.2989 72.0117C99.2973 72.0125 99.2955 72.0138 99.294 72.0146L99.2823 72.0205C99.2806 72.0213 99.2781 72.0217 99.2764 72.0225C99.2749 72.0233 99.2731 72.0246 99.2715 72.0254L99.2539 72.0342C99.2524 72.035 99.2506 72.0363 99.2491 72.0371L99.2373 72.043C99.2357 72.0438 99.2332 72.0442 99.2315 72.0449C99.2299 72.0457 99.2281 72.047 99.2266 72.0479L99.2032 72.0596C99.2016 72.0604 99.1998 72.0617 99.1983 72.0625L99.1807 72.0713C99.179 72.0721 99.1765 72.0725 99.1748 72.0732L99.169 72.0762C99.1674 72.077 99.1656 72.0783 99.1641 72.0791L99.1348 72.0938C99.1333 72.0945 99.1315 72.0959 99.1299 72.0967L99.1065 72.1084C99.1048 72.1092 99.1023 72.1096 99.1006 72.1104L99.0948 72.1133C99.0932 72.1141 99.0914 72.1154 99.0899 72.1162L99.0371 72.1426C99.0356 72.1434 99.0338 72.1447 99.0323 72.1455L98.9912 72.166C98.9895 72.1668 98.9871 72.1672 98.9854 72.168L98.9619 72.1797C98.9604 72.1805 98.9586 72.1818 98.9571 72.1826L98.6641 72.3291C98.5394 72.3914 98.0532 72.6354 97.5918 72.8662C97.3608 72.9818 97.1353 73.0945 96.9649 73.1797C96.8799 73.2222 96.8076 73.2574 96.7559 73.2832C96.7302 73.296 96.7093 73.307 96.6944 73.3145C96.6814 73.3209 96.6747 73.3243 96.6729 73.3252C96.5189 73.3999 96.3803 73.5102 96.2754 73.6025C96.1612 73.7032 96.0426 73.8227 95.9258 73.9502C95.6916 74.2059 95.4377 74.5223 95.2041 74.8535C94.9713 75.1837 94.747 75.5445 94.5762 75.8887C94.4187 76.2062 94.2564 76.6074 94.25 76.9873C94.2431 77.4013 94.5734 77.7428 94.9873 77.75C95.4012 77.7567 95.7429 77.4266 95.75 77.0127C95.7504 77.0085 95.754 76.9665 95.7823 76.8799C95.8108 76.7925 95.8566 76.6834 95.92 76.5557C96.0472 76.2992 96.2279 76.0054 96.4307 75.7178C96.6328 75.4312 96.846 75.1652 97.0313 74.9629C97.124 74.8616 97.204 74.7827 97.2666 74.7275C97.3383 74.6645 97.356 74.6608 97.3272 74.6748L99.6162 73.5303C99.6178 73.5295 99.6196 73.5281 99.6211 73.5273L99.6797 73.498C99.6814 73.4973 99.6839 73.4969 99.6856 73.4961L99.6973 73.4902C99.6988 73.4894 99.7006 73.4881 99.7022 73.4873L99.7549 73.4609C99.7565 73.4601 99.7583 73.4588 99.7598 73.458L99.7891 73.4434C99.7908 73.4426 99.7933 73.4422 99.795 73.4414C99.7965 73.4406 99.7983 73.4393 99.7998 73.4385L99.835 73.4209C99.8365 73.4201 99.8383 73.4188 99.8399 73.418L99.8575 73.4092C99.8592 73.4084 99.8616 73.408 99.8633 73.4072C99.8649 73.4064 99.8667 73.4051 99.8682 73.4043L99.8916 73.3926C99.8932 73.3918 99.895 73.3904 99.8965 73.3896L99.9082 73.3838C99.91 73.383 99.9124 73.3826 99.9141 73.3818L99.92 73.3789C99.9215 73.3781 99.9233 73.3768 99.9248 73.376L99.9424 73.3672C99.944 73.3664 99.9458 73.3651 99.9473 73.3643L99.959 73.3584C99.9607 73.3577 99.9632 73.3572 99.9649 73.3564C99.9664 73.3556 99.9682 73.3543 99.9698 73.3535L99.9815 73.3477C99.983 73.3468 99.9848 73.3455 99.9864 73.3447L99.9981 73.3389C99.9995 73.3382 100.002 73.3376 100.003 73.3369L100.021 73.3281C100.022 73.3273 100.024 73.326 100.025 73.3252L100.031 73.3223C100.033 73.3215 100.036 73.3211 100.037 73.3203C100.039 73.3195 100.04 73.3182 100.042 73.3174L100.048 73.3145C100.049 73.3136 100.051 73.3123 100.053 73.3115L100.059 73.3086C100.06 73.3078 100.063 73.3074 100.064 73.3066C100.066 73.3058 100.068 73.3045 100.069 73.3037L100.081 73.2979C100.083 73.297 100.084 73.2957 100.086 73.2949L100.092 73.292C100.093 73.2913 100.095 73.2907 100.097 73.29L100.108 73.2842C100.11 73.2834 100.112 73.282 100.113 73.2812L100.119 73.2783C100.121 73.2776 100.123 73.277 100.124 73.2764L100.13 73.2734C100.131 73.2726 100.133 73.2713 100.135 73.2705L100.141 73.2676C100.142 73.2668 100.145 73.2664 100.147 73.2656C100.148 73.2648 100.15 73.2635 100.151 73.2627L100.157 73.2598C100.159 73.2589 100.161 73.2576 100.162 73.2568C100.164 73.2561 100.166 73.2557 100.168 73.2549C100.17 73.2541 100.171 73.2527 100.173 73.252L100.179 73.249C100.18 73.2482 100.182 73.2469 100.184 73.2461C100.185 73.2453 100.188 73.2449 100.189 73.2441C100.191 73.2433 100.193 73.242 100.194 73.2412L100.2 73.2383C100.202 73.2375 100.204 73.2361 100.205 73.2354C100.207 73.2346 100.209 73.2342 100.211 73.2334L100.221 73.2275L100.227 73.2246C100.228 73.2239 100.23 73.2233 100.231 73.2227L100.237 73.2197C100.239 73.2189 100.241 73.2176 100.242 73.2168C100.244 73.216 100.246 73.2156 100.248 73.2148L100.258 73.209C100.26 73.2082 100.262 73.2078 100.264 73.207L100.273 73.2012L100.279 73.1982C100.281 73.1976 100.283 73.197 100.284 73.1963L100.29 73.1934C100.292 73.1926 100.293 73.1912 100.295 73.1904C100.296 73.1898 100.298 73.1892 100.3 73.1885L100.306 73.1855C100.307 73.1848 100.309 73.1834 100.311 73.1826C100.312 73.1819 100.314 73.1813 100.315 73.1807L100.321 73.1777C100.323 73.177 100.325 73.1756 100.326 73.1748C100.328 73.1741 100.33 73.1735 100.331 73.1729C100.333 73.172 100.334 73.1707 100.336 73.1699C100.338 73.1692 100.34 73.1687 100.342 73.168L100.352 73.1621C100.353 73.1614 100.355 73.1608 100.356 73.1602L100.362 73.1572C100.364 73.1564 100.366 73.1551 100.367 73.1543C100.369 73.1536 100.371 73.153 100.372 73.1523C100.374 73.1515 100.375 73.1502 100.377 73.1494C100.379 73.1487 100.381 73.1482 100.383 73.1475L100.393 73.1416C100.394 73.1409 100.396 73.1403 100.397 73.1396C100.399 73.1388 100.401 73.1375 100.402 73.1367C100.404 73.1361 100.406 73.1354 100.407 73.1348L100.413 73.1318C100.415 73.1312 100.417 73.1306 100.418 73.1299L100.428 73.124C100.429 73.1233 100.431 73.1228 100.433 73.1221C100.434 73.1213 100.436 73.1199 100.438 73.1191C100.439 73.1185 100.441 73.1179 100.442 73.1172C100.444 73.1164 100.446 73.115 100.447 73.1143C100.449 73.1136 100.451 73.113 100.452 73.1123L100.458 73.1094C100.459 73.1087 100.462 73.1081 100.463 73.1074C100.464 73.1066 100.466 73.1052 100.468 73.1045C100.469 73.1038 100.471 73.1032 100.473 73.1025C100.474 73.1017 100.476 73.1004 100.478 73.0996C100.479 73.0989 100.481 73.0983 100.482 73.0977C100.484 73.0969 100.486 73.0955 100.487 73.0947C100.489 73.0941 100.491 73.0935 100.492 73.0928C100.494 73.092 100.496 73.0906 100.497 73.0898C100.499 73.0892 100.501 73.0886 100.502 73.0879C100.503 73.0871 100.505 73.0857 100.507 73.085C100.508 73.0843 100.51 73.0837 100.512 73.083C100.513 73.0822 100.515 73.0808 100.517 73.0801C100.518 73.0794 100.52 73.0788 100.522 73.0781C100.523 73.0774 100.525 73.0759 100.526 73.0752L100.53 73.0732C100.532 73.0725 100.534 73.071 100.535 73.0703C100.537 73.0697 100.539 73.069 100.54 73.0684C100.542 73.0676 100.544 73.0662 100.545 73.0654C100.546 73.0648 100.548 73.0642 100.55 73.0635C100.551 73.0627 100.553 73.0613 100.555 73.0605L100.564 73.0566C100.566 73.0559 100.567 73.0544 100.568 73.0537C100.57 73.0531 100.572 73.0524 100.573 73.0518C100.575 73.051 100.577 73.0496 100.578 73.0488C100.58 73.0482 100.582 73.0476 100.583 73.0469C100.584 73.0461 100.586 73.0447 100.588 73.0439C100.589 73.0433 100.591 73.0426 100.593 73.042L100.597 73.04C100.598 73.0393 100.6 73.0378 100.602 73.0371L100.611 73.0332C100.613 73.0325 100.614 73.031 100.615 73.0303C100.617 73.0296 100.619 73.029 100.62 73.0283C100.622 73.0276 100.624 73.0261 100.625 73.0254C100.626 73.0248 100.629 73.0241 100.63 73.0234L100.634 73.0215C100.635 73.0207 100.637 73.0193 100.639 73.0186C100.64 73.0179 100.642 73.0172 100.644 73.0166L100.647 73.0146C100.649 73.0139 100.651 73.0124 100.652 73.0117C100.654 73.0111 100.656 73.0104 100.657 73.0098L100.661 73.0078C100.663 73.0071 100.665 73.0056 100.666 73.0049L100.67 73.0029L100.68 72.999C100.681 72.9983 100.682 72.9968 100.684 72.9961C100.685 72.9954 100.687 72.9948 100.689 72.9941L100.692 72.9922C100.694 72.9914 100.696 72.99 100.697 72.9893L100.701 72.9873C100.703 72.9867 100.705 72.986 100.706 72.9854L100.71 72.9834C100.711 72.9827 100.714 72.9812 100.715 72.9805L100.719 72.9785C100.72 72.9779 100.722 72.9772 100.724 72.9766L100.728 72.9746C100.729 72.974 100.731 72.9733 100.732 72.9727C100.734 72.9719 100.735 72.9704 100.736 72.9697C100.738 72.9691 100.74 72.9684 100.741 72.9678L100.749 72.9639C100.75 72.9631 100.753 72.9616 100.754 72.9609L100.758 72.959C100.759 72.9584 100.761 72.9577 100.763 72.957L100.771 72.9531C100.772 72.9525 100.774 72.9518 100.775 72.9512C100.777 72.9505 100.778 72.9489 100.779 72.9482L100.787 72.9443C100.788 72.9437 100.791 72.943 100.792 72.9424L100.804 72.9365C100.805 72.9359 100.807 72.9352 100.809 72.9346C100.81 72.9339 100.811 72.9323 100.813 72.9316L100.824 72.9258C100.826 72.9252 100.828 72.9244 100.829 72.9238L100.864 72.9062C100.866 72.9057 100.868 72.9049 100.869 72.9043L100.881 72.8984C100.882 72.8979 100.883 72.897 100.884 72.8965L100.919 72.8789C100.92 72.8784 100.921 72.8774 100.922 72.877L100.934 72.8711C100.935 72.8707 100.936 72.8705 100.938 72.8701C100.938 72.8696 100.94 72.8686 100.94 72.8682L100.952 72.8623C100.953 72.8618 100.954 72.8608 100.955 72.8604L100.959 72.8584C100.96 72.858 100.962 72.8579 100.963 72.8574C100.964 72.8569 100.965 72.8559 100.966 72.8555L100.974 72.8516C100.975 72.851 100.976 72.8501 100.977 72.8496L100.98 72.8477L100.983 72.8467L100.991 72.8428C100.992 72.8423 100.993 72.8413 100.994 72.8408C100.995 72.8404 100.997 72.8403 100.998 72.8398C100.999 72.8393 101 72.8384 101.001 72.8379L101.005 72.8359C101.006 72.8354 101.007 72.8345 101.008 72.834C101.009 72.8336 101.011 72.8334 101.012 72.833C101.013 72.8325 101.014 72.8315 101.015 72.8311L101.019 72.8291C101.019 72.8286 101.021 72.8276 101.022 72.8271L101.024 72.8262L101.028 72.8242C101.029 72.8237 101.03 72.8227 101.031 72.8223C101.032 72.8219 101.034 72.8217 101.035 72.8213L101.041 72.8174C101.042 72.817 101.044 72.8168 101.045 72.8164L101.051 72.8125L101.054 72.8115L101.058 72.8096L101.061 72.8076L101.064 72.8066C101.064 72.8061 101.066 72.8052 101.066 72.8047L101.069 72.8037L101.073 72.8018L101.076 72.7998L101.079 72.7988C101.08 72.7983 101.081 72.7973 101.082 72.7969L101.085 72.7959L101.088 72.7939L101.091 72.793L101.094 72.791L101.097 72.79L101.1 72.7881L101.103 72.7871L101.105 72.7852L101.108 72.7842L101.111 72.7822L101.114 72.7812L101.117 72.7793L101.12 72.7783L101.123 72.7764L101.126 72.7754L101.129 72.7734L101.132 72.7725L101.134 72.7715L101.137 72.7695L101.14 72.7686L101.143 72.7666L101.146 72.7656L101.147 72.7646L101.15 72.7627L101.153 72.7617L101.155 72.7607L101.158 72.7588L101.161 72.7578L101.163 72.7568L101.166 72.7549L101.169 72.7539L101.171 72.7529L101.174 72.752L101.176 72.75L101.179 72.749L101.181 72.748L101.184 72.7461L101.186 72.7451L101.189 72.7441L101.19 72.7432L101.193 72.7422L101.195 72.7402L101.197 72.7393L101.2 72.7383L101.204 72.7363L101.207 72.7354L101.209 72.7334L101.211 72.7324L101.214 72.7314L101.222 72.7275L101.225 72.7266L101.227 72.7256L101.229 72.7236L101.252 72.7119H101.254L101.256 72.7109L101.257 72.71L101.265 72.7061L101.266 72.7051L101.268 72.7041H101.27L101.271 72.7031L101.274 72.7012L101.275 72.7002L101.277 72.6992L101.282 72.6973L101.283 72.6963H101.285L101.286 72.6953L101.288 72.6943L101.289 72.6934L101.292 72.6924L101.293 72.6914H101.295L101.297 72.6895L101.3 72.6885L101.301 72.6875L101.303 72.6865H101.305L101.307 72.6846L101.309 72.6836L101.311 72.6826L101.313 72.6816L101.314 72.6807L101.316 72.6797L101.318 72.6787H101.32L101.322 72.6768H101.324V72.6758H101.326L101.328 72.6748L101.33 72.6729H101.332L101.334 72.6719L101.335 72.6709L101.347 72.665L101.357 72.6592L101.359 72.6582C101.36 72.6577 101.361 72.6568 101.362 72.6562C101.365 72.6547 101.37 72.6521 101.375 72.6494C101.385 72.6438 101.4 72.6359 101.418 72.626C101.455 72.6056 101.506 72.5758 101.568 72.54C101.692 72.4687 101.861 72.3692 102.035 72.2568C102.207 72.1463 102.399 72.0134 102.564 71.8779C102.646 71.8104 102.734 71.7322 102.812 71.6465C102.881 71.5704 102.988 71.4401 103.053 71.2676C103.054 71.2642 103.066 71.2378 103.107 71.1611C103.144 71.0923 103.201 70.9893 103.254 70.8809C103.353 70.6777 103.499 70.3408 103.499 69.9648C103.499 69.5073 103.486 69.517 103.498 69.2939C103.52 68.8807 103.202 68.5273 102.789 68.5049Z" fill="#FCF7E5"/>
<path d="M240.886 38C238.943 38 237.157 37.7589 235.529 37.2768C233.917 36.8113 232.547 36.2627 231.417 35.6309C230.304 34.9825 229.498 34.4007 229 33.8853C229.1 33.5694 229.291 33.1122 229.573 32.5137C229.872 31.8986 230.221 31.2336 230.62 30.5187C231.018 29.8038 231.417 29.1388 231.816 28.5237C232.215 27.9086 232.572 27.4514 232.887 27.1521C233.685 27.8337 234.549 28.5071 235.479 29.1721C236.409 29.8204 237.364 30.3525 238.345 30.7681C239.325 31.1837 240.238 31.3915 241.086 31.3915C241.75 31.3915 242.348 31.3084 242.88 31.1421C243.411 30.9593 243.827 30.6933 244.126 30.3441C244.441 29.995 244.599 29.5628 244.599 29.0474C244.599 28.4489 244.308 27.8753 243.727 27.3267C243.162 26.7614 242.431 26.2294 241.534 25.7307C240.637 25.2319 239.698 24.783 238.718 24.384C237.373 23.8354 236.118 23.1953 234.956 22.4638C233.793 21.7157 232.854 20.8013 232.14 19.7207C231.425 18.6234 231.068 17.2602 231.068 15.6309C231.068 13.9684 231.558 12.5719 232.538 11.4414C233.519 10.3109 234.798 9.4547 236.376 8.87282C237.971 8.29094 239.674 8 241.484 8C243.195 8 244.931 8.24107 246.692 8.7232C248.453 9.1887 249.89 9.86201 251.003 10.7431C250.904 11.059 250.688 11.5411 250.355 12.1895C250.04 12.8379 249.649 13.5362 249.184 14.2843C248.736 15.0158 248.254 15.6891 247.739 16.3042C247.058 15.7224 246.202 15.1654 245.172 14.6334C244.142 14.1014 243.062 13.8354 241.933 13.8354C241.368 13.8354 240.803 13.8936 240.238 14.01C239.69 14.1264 239.233 14.3342 238.868 14.6334C238.519 14.9327 238.345 15.34 238.345 15.8554C238.345 16.3541 238.536 16.803 238.918 17.202C239.3 17.5844 239.856 17.9584 240.587 18.3242C241.335 18.6899 242.207 19.0723 243.204 19.4713C244.2 19.8703 245.214 20.3441 246.244 20.8928C247.274 21.4248 248.221 22.0648 249.085 22.813C249.965 23.5611 250.671 24.4339 251.203 25.4314C251.734 26.4123 252 27.5428 252 28.8229C252 30.8678 251.493 32.5719 250.48 33.9352C249.467 35.2984 248.113 36.3126 246.418 36.9776C244.74 37.6592 242.896 38 240.886 38Z" fill="#FCF7E5"/>
<path d="M215.899 13.474C216.285 12.7241 216.872 12.0076 217.66 11.3245C218.465 10.6413 219.413 10.0831 220.503 9.64985C221.61 9.21662 222.784 9 224.025 9C224.78 9 225.543 9.07498 226.314 9.22495C227.086 9.37491 227.648 9.57487 228 9.82481L226.44 17.773C226.071 17.623 225.593 17.4564 225.006 17.2731C224.419 17.0898 223.748 16.9982 222.994 16.9982C222.222 16.9982 221.468 17.1315 220.73 17.3981C220.008 17.648 219.338 18.0063 218.717 18.4728C218.096 18.9394 217.551 19.4976 217.082 20.1474C217.249 21.1139 217.434 22.3469 217.635 23.8466C217.853 25.3462 218.055 26.8875 218.239 28.4705C218.423 30.0535 218.574 31.4948 218.692 32.7945C218.809 34.0942 218.868 35.044 218.868 35.6438C217.694 35.7938 216.335 35.8938 214.792 35.9438C213.249 35.9938 211.765 36.0104 210.34 35.9938C210.34 34.5941 210.298 33.0028 210.214 31.2199C210.147 29.4369 210.046 27.579 209.912 25.6461C209.778 23.6966 209.61 21.7804 209.409 19.8975C209.224 17.9979 209.006 16.24 208.755 14.6237C208.52 13.0074 208.268 11.6327 208 10.4997C208.805 10.2664 209.694 10.0498 210.667 9.84981C211.639 9.64985 212.52 9.49155 213.308 9.37491C214.096 9.24161 214.6 9.16663 214.818 9.14997C215.019 9.61653 215.245 10.308 215.497 11.2245C215.748 12.1243 215.883 12.8741 215.899 13.474Z" fill="#FCF7E5"/>
<path d="M187.145 36C185.128 36 183.283 35.727 181.61 35.1811C179.937 34.6186 178.6 33.7169 177.599 32.4761C176.615 31.2188 176.123 29.5561 176.123 27.4881C176.123 25.42 176.697 23.7574 177.845 22.5C179.01 21.2261 180.535 20.3079 182.421 19.7454C184.324 19.1664 186.366 18.8768 188.548 18.8768C189.401 18.8768 190.221 18.943 191.008 19.0754C191.795 19.2077 192.484 19.3649 193.075 19.5469C193.681 19.7289 194.116 19.9026 194.379 20.068C194.362 19.6379 194.272 19.1829 194.108 18.7031C193.96 18.2233 193.747 17.818 193.468 17.4871C192.976 16.8088 192.304 16.2463 191.451 15.7996C190.614 15.3364 189.507 15.1048 188.129 15.1048C186.735 15.1048 185.505 15.4274 184.439 16.0726C183.373 16.7013 182.561 17.4127 182.003 18.2068L176 14.3107C176.738 13.2518 177.73 12.3254 178.977 11.5312C180.24 10.7371 181.667 10.1167 183.258 9.67004C184.865 9.22334 186.547 9 188.302 9C191.205 9 193.558 9.47978 195.363 10.4393C197.167 11.3989 198.504 12.739 199.373 14.4596C199.783 15.2868 200.119 16.1967 200.382 17.1893C200.644 18.182 200.825 19.3235 200.923 20.614C200.989 21.7224 201.038 22.7564 201.071 23.716C201.103 24.6756 201.136 25.5855 201.169 26.4458C201.202 27.7031 201.341 28.5221 201.587 28.9026C201.833 29.2831 202.186 29.4733 202.645 29.4733C203.072 29.4733 203.449 29.3575 203.777 29.1259C204.121 28.8778 204.343 28.5551 204.441 28.1581L207 33.0965C206.82 33.8575 206.311 34.4945 205.475 35.0074C204.638 35.5202 203.58 35.7767 202.301 35.7767C201.366 35.7767 200.48 35.6195 199.644 35.3051C198.807 34.9743 198.118 34.5358 197.577 33.9899C197.036 33.4274 196.716 32.7904 196.617 32.079C196.355 32.7077 195.806 33.3281 194.969 33.9403C194.133 34.5358 193.058 35.0322 191.746 35.4292C190.434 35.8097 188.9 36 187.145 36ZM188.794 30.1682C189.565 30.1682 190.352 30.0524 191.156 29.8208C191.976 29.5726 192.714 29.2665 193.37 28.9026C194.042 28.5386 194.559 28.1664 194.92 27.7858C194.887 27.273 194.854 26.7436 194.821 26.1976C194.805 25.6517 194.805 25.1884 194.821 24.8079C194.461 24.659 193.772 24.5018 192.755 24.3364C191.754 24.1544 190.704 24.0634 189.606 24.0634C188.605 24.0634 187.67 24.171 186.801 24.386C185.931 24.6011 185.218 24.932 184.66 25.3787C184.119 25.8254 183.848 26.4044 183.848 27.1158C183.848 27.8768 184.053 28.4807 184.463 28.9274C184.874 29.3741 185.448 29.6967 186.186 29.8952C186.924 30.0772 187.793 30.1682 188.794 30.1682Z" fill="#FCF7E5"/>
<path d="M174 34.8161C173.54 35.3182 172.677 35.8035 171.412 36.272C170.163 36.7574 168.766 37 167.222 37C165.217 37 163.689 36.5231 162.637 35.5692C161.602 34.6153 160.904 33.2682 160.542 31.5278C160.181 29.7707 160 27.7291 160 25.403C160 23.5789 160.016 21.7465 160.049 19.9057C160.082 18.0649 160.123 16.2408 160.173 14.4335C160.238 12.6262 160.304 10.8774 160.37 9.18724C160.452 7.48032 160.526 5.86544 160.592 4.3426C160.674 2.80303 160.756 1.39733 160.838 0.125509C162.005 0.0418366 163.081 0 164.067 0C164.708 0 165.34 0.016734 165.965 0.0502025C166.589 0.0836711 167.279 0.133873 168.035 0.20081C167.953 1.65671 167.854 3.2716 167.739 5.04545C167.641 6.80258 167.542 8.60154 167.444 10.4423C167.362 12.2831 167.279 14.0654 167.197 15.789C167.115 17.5127 167.049 19.0773 167 20.483C166.967 21.872 166.951 22.9848 166.951 23.8216C166.951 24.9093 166.992 25.9218 167.074 26.8589C167.173 27.7793 167.386 28.5323 167.715 29.118C168.043 29.687 168.536 29.9715 169.194 29.9715C169.752 29.9715 170.204 29.846 170.549 29.595C170.911 29.3272 171.207 28.9925 171.437 28.5909C171.552 28.7917 171.732 29.1933 171.979 29.7958C172.225 30.3815 172.496 31.0341 172.792 31.7537C173.088 32.4733 173.351 33.126 173.581 33.7117C173.811 34.2806 173.951 34.6488 174 34.8161Z" fill="#FCF7E5"/>
<path d="M158 34.8161C157.54 35.3182 156.677 35.8035 155.412 36.272C154.163 36.7574 152.766 37 151.222 37C149.217 37 147.689 36.5231 146.637 35.5692C145.602 34.6153 144.904 33.2682 144.542 31.5278C144.181 29.7707 144 27.7291 144 25.403C144 23.5789 144.016 21.7465 144.049 19.9057C144.082 18.0649 144.123 16.2408 144.173 14.4335C144.238 12.6262 144.304 10.8774 144.37 9.18724C144.452 7.48032 144.526 5.86544 144.592 4.3426C144.674 2.80303 144.756 1.39733 144.838 0.125509C146.005 0.0418366 147.081 0 148.067 0C148.708 0 149.34 0.016734 149.965 0.0502025C150.589 0.0836711 151.279 0.133873 152.035 0.20081C151.953 1.65671 151.854 3.2716 151.739 5.04545C151.641 6.80258 151.542 8.60154 151.444 10.4423C151.362 12.2831 151.279 14.0654 151.197 15.789C151.115 17.5127 151.049 19.0773 151 20.483C150.967 21.872 150.951 22.9848 150.951 23.8216C150.951 24.9093 150.992 25.9218 151.074 26.8589C151.173 27.7793 151.386 28.5323 151.715 29.118C152.043 29.687 152.536 29.9715 153.194 29.9715C153.752 29.9715 154.204 29.846 154.549 29.595C154.911 29.3272 155.207 28.9925 155.437 28.5909C155.552 28.7917 155.732 29.1933 155.979 29.7958C156.225 30.3815 156.496 31.0341 156.792 31.7537C157.088 32.4733 157.351 33.126 157.581 33.7117C157.811 34.2806 157.951 34.6488 158 34.8161Z" fill="#FCF7E5"/>
<path d="M137.203 35.7989C136.916 35.8156 136.367 35.8492 135.557 35.8994C134.764 35.9665 133.92 36 133.025 36C132.367 36 131.7 35.9749 131.025 35.9246C130.367 35.8911 129.717 35.8408 129.076 35.7737C129.16 35.338 129.253 34.4497 129.354 33.1089C129.473 31.7514 129.582 30.1592 129.684 28.3324C129.802 26.5056 129.911 24.6201 130.013 22.676C130.131 20.7151 130.215 18.8799 130.266 17.1704C130.333 15.4609 130.367 14.0866 130.367 13.0475C130.705 13.0307 131.203 13.0056 131.861 12.9721C132.519 12.9385 133.228 12.9134 133.987 12.8966C134.747 12.8631 135.473 12.838 136.165 12.8212C136.857 12.7877 137.405 12.7709 137.81 12.7709C137.895 13.2905 137.962 14.1285 138.013 15.2849C138.063 16.4413 138.089 17.7318 138.089 19.1564C138.089 20.6816 138.063 22.2989 138.013 24.0084C137.979 25.7179 137.92 27.3771 137.835 28.986C137.768 30.5782 137.675 31.986 137.557 33.2095C137.439 34.4162 137.321 35.2793 137.203 35.7989ZM134.367 9.52794C132.848 9.52794 131.574 9.09218 130.544 8.22067C129.515 7.3324 129 6.1676 129 4.72626C129 3.73743 129.245 2.89106 129.734 2.18715C130.224 1.48324 130.857 0.946931 131.633 0.578214C132.426 0.192739 133.262 0 134.139 0C135.54 0 136.696 0.452514 137.608 1.35754C138.536 2.26257 139 3.42738 139 4.85196C139 6.17598 138.561 7.29051 137.684 8.19553C136.806 9.0838 135.7 9.52794 134.367 9.52794Z" fill="#FCF7E5"/>
<path d="M103 35.8041C103 35.3961 103.008 34.6208 103.025 33.4782C103.042 32.3356 103.067 30.9482 103.1 29.316C103.133 27.6838 103.175 25.9209 103.225 24.0275C103.292 22.1341 103.35 20.2163 103.4 18.2739C103.467 16.3315 103.534 14.479 103.601 12.7161C103.667 10.937 103.743 9.37006 103.826 8.0153C103.909 6.64422 103.984 5.59959 104.051 4.88141C105.553 4.5876 107.121 4.36726 108.757 4.22036C110.408 4.07345 112.135 4 113.937 4C116.14 4 118.067 4.30196 119.719 4.90589C121.388 5.50982 122.681 6.45651 123.598 7.74598C124.533 9.03545 125 10.7003 125 12.7406C125 14.8136 124.616 16.609 123.849 18.127C123.098 19.645 121.947 20.812 120.395 21.6282C118.86 22.4443 116.924 22.8523 114.588 22.8523C114.121 22.8523 113.562 22.8197 112.911 22.7544C112.277 22.6728 111.785 22.583 111.435 22.4851C111.418 22.9258 111.393 23.7093 111.36 24.8355C111.343 25.9617 111.309 27.2186 111.259 28.606C111.226 29.9934 111.193 31.3563 111.159 32.6947C111.126 34.0332 111.109 35.1349 111.109 36C110.709 36 110.15 36 109.432 36C108.715 36 107.939 35.9837 107.105 35.951C106.287 35.9347 105.511 35.9102 104.777 35.8776C104.043 35.8613 103.451 35.8368 103 35.8041ZM111.284 16.1194C111.635 16.1846 112.035 16.2418 112.486 16.2907C112.953 16.3234 113.403 16.3397 113.837 16.3397C114.638 16.3397 115.381 16.2173 116.065 15.9725C116.749 15.7113 117.3 15.3196 117.717 14.7972C118.134 14.2586 118.342 13.5731 118.342 12.7406C118.342 11.5328 117.984 10.7167 117.266 10.2923C116.549 9.85157 115.589 9.63122 114.388 9.63122C113.921 9.63122 113.429 9.6557 112.911 9.70467C112.394 9.73731 111.852 9.78628 111.284 9.85157C111.284 9.9495 111.284 10.1943 111.284 10.5861C111.284 10.9778 111.284 11.4512 111.284 12.0061C111.284 12.5448 111.284 13.0916 111.284 13.6465C111.284 14.2015 111.284 14.7075 111.284 15.1645C111.284 15.6215 111.284 15.9398 111.284 16.1194Z" fill="#FCF7E5"/>
<path d="M62.9071 35.9874C62.4066 36.0042 61.7894 36.0042 61.0554 35.9874C60.3214 35.9874 59.5707 35.979 58.8034 35.9623C58.1862 35.9455 57.4772 35.9204 56.6765 35.8868C55.8758 35.8533 55.3169 35.8197 55 35.7862C55.1501 34.3777 55.2752 32.7848 55.3753 31.0074C55.4921 29.2301 55.5839 27.2599 55.6506 25.0969C55.7173 22.9339 55.7674 20.5696 55.8007 18.0042C55.8341 15.4388 55.8508 12.6637 55.8508 9.67909C56.4847 9.59525 57.2353 9.52818 58.1028 9.47788C58.9702 9.42758 59.846 9.40242 60.7301 9.40242C61.3473 9.40242 61.9395 9.41919 62.5067 9.45273C63.0906 9.46949 63.6077 9.5198 64.0581 9.60364C64.0581 9.75454 64.0581 10.0647 64.0581 10.5342C64.0748 10.987 64.0748 11.49 64.0581 12.0433C64.0581 12.5799 64.0497 13.0661 64.0331 13.5021C64.4668 12.8649 65.1758 12.2026 66.16 11.5151C67.1442 10.8109 68.2869 10.2157 69.588 9.72939C70.8892 9.24313 72.2321 9 73.6166 9C76.1689 9 78.1206 9.5198 79.4719 10.5594C80.8231 11.5822 81.7489 13.1248 82.2493 15.1872C82.7498 17.2329 83 19.7983 83 22.8836C83 23.9567 82.9666 25.2143 82.8999 26.6563C82.8499 28.0815 82.7665 29.5822 82.6497 31.1584C82.5329 32.7345 82.3828 34.2604 82.1993 35.7359C81.8657 35.7694 81.3318 35.7946 80.5979 35.8114C79.8806 35.8449 79.1215 35.8617 78.3208 35.8617C77.4701 35.8617 76.661 35.8449 75.8937 35.8114C75.1263 35.7946 74.5591 35.7694 74.1921 35.7359C74.3756 34.7969 74.5758 33.6232 74.7927 32.2147C75.0095 30.8062 75.193 29.3055 75.3432 27.7126C75.4933 26.1029 75.5684 24.5687 75.5684 23.1099C75.5684 21.7014 75.4516 20.4774 75.2181 19.4378C75.0012 18.3982 74.5758 17.5934 73.9419 17.0233C73.3247 16.4364 72.4072 16.143 71.1895 16.143C70.1886 16.143 69.2294 16.3191 68.3119 16.6712C67.3944 17.0233 66.5603 17.4592 65.8097 17.979C65.059 18.4821 64.4167 18.9767 63.8829 19.463C63.8662 22.1122 63.7995 24.51 63.6828 26.6563C63.566 28.7857 63.4409 30.6386 63.3074 32.2147C63.174 33.7741 63.0405 35.0317 62.9071 35.9874Z" fill="#FCF7E5"/>
<path d="M50.9159 31.357C50.4452 31.929 49.8568 32.4925 49.1506 33.0477C48.4445 33.6028 47.5955 34.1075 46.6036 34.5617C45.6284 34.9991 44.5104 35.3523 43.2495 35.6215C41.9886 35.8738 40.5763 36 39.0128 36C36.4741 36 34.2213 35.5206 32.2542 34.5617C30.2872 33.586 28.7488 32.1477 27.6392 30.2467C26.5464 28.329 26 25.9486 26 23.1056C26 20.2626 26.5716 17.7897 27.7149 15.6869C28.8581 13.5673 30.4553 11.9271 32.5064 10.7664C34.5575 9.58879 36.9533 9 39.6937 9C43.157 9 45.8806 9.96729 47.8645 11.9019C49.8652 13.8196 50.9075 16.4776 50.9916 19.8757C51.0084 20.4981 51 21.0617 50.9664 21.5664C50.9328 22.071 50.8655 22.6093 50.7646 23.1813C50.5124 23.1645 49.9744 23.1477 49.1506 23.1308C48.3268 23.114 47.3937 23.0972 46.3514 23.0804C45.3258 23.0467 44.3507 23.0215 43.426 23.0047C42.5182 22.9879 41.8457 22.9794 41.4085 22.9794C39.9459 22.9794 38.5252 23.0467 37.1466 23.1813C35.7848 23.3159 34.6416 23.4589 33.7169 23.6103C33.7169 23.9131 33.7337 24.2159 33.7673 24.5187C33.8178 24.8047 33.885 25.0822 33.9691 25.3514C34.1876 26.0411 34.5659 26.6299 35.1039 27.1178C35.6587 27.6056 36.3144 27.9841 37.0709 28.2533C37.8443 28.5056 38.6597 28.6318 39.5171 28.6318C40.2905 28.6318 40.9966 28.5393 41.6355 28.3542C42.2912 28.1523 42.888 27.8916 43.426 27.572C43.964 27.2523 44.4516 26.9075 44.8887 26.5374C45.3426 26.1505 45.7629 25.772 46.1496 25.4019C46.2505 25.486 46.5111 25.7383 46.9314 26.1589C47.3517 26.5626 47.8225 27.0673 48.3436 27.6729C48.8648 28.2617 49.3608 28.8841 49.8315 29.5402C50.3023 30.1963 50.6638 30.8019 50.9159 31.357ZM33.9943 18.8916C34.7508 18.7738 35.6839 18.6645 36.7935 18.5636C37.9032 18.4626 39.1893 18.4121 40.652 18.4121C41.4422 18.4121 42.1399 18.4206 42.7451 18.4374C43.3672 18.4542 43.8043 18.471 44.0565 18.4879C44.0565 18.1346 44.0061 17.7477 43.9052 17.3271C43.7707 16.7551 43.5017 16.2084 43.0982 15.6869C42.7115 15.1654 42.2071 14.7449 41.5851 14.4252C40.9798 14.1056 40.2485 13.9458 39.3911 13.9458C38.3151 13.9458 37.3736 14.1813 36.5666 14.6523C35.7764 15.1234 35.1627 15.7374 34.7256 16.4944C34.2885 17.2514 34.0447 18.0505 33.9943 18.8916Z" fill="#FCF7E5"/>
<path d="M0.502543 10.2708C0.418785 9.91172 0.343404 9.40579 0.276398 8.75297C0.226144 8.08383 0.17589 7.39021 0.125636 6.67211C0.0921328 5.93769 0.0586299 5.28486 0.0251271 4.71365C0.00837567 4.12611 0 3.72626 0 3.51409C1.87616 3.38353 4.01197 3.26929 6.40742 3.17136C8.81962 3.05712 11.257 3 13.7194 3C15.5788 3 17.388 3.0408 19.1469 3.1224C20.9225 3.18769 22.539 3.32641 23.9964 3.53858C24.0132 4.89317 23.9713 6.15801 23.8708 7.33309C23.7703 8.49184 23.653 9.36498 23.519 9.95252C23.2007 9.95252 22.7401 9.95252 22.137 9.95252C21.534 9.9362 20.8639 9.92804 20.1268 9.92804C19.4065 9.91172 18.6946 9.90356 17.991 9.90356C17.2875 9.88724 16.676 9.87092 16.1567 9.8546C16.1735 10.4585 16.207 11.3561 16.2573 12.5475C16.3075 13.7226 16.3661 15.069 16.4331 16.5868C16.5002 18.1046 16.5755 19.6958 16.6593 21.3605C16.743 23.0252 16.8184 24.6573 16.8854 26.2567C16.9692 27.8561 17.0362 29.3249 17.0865 30.6632C17.1535 31.9852 17.2037 33.0786 17.2372 33.9436C17.2875 34.7923 17.3126 35.2982 17.3126 35.4614C16.6425 35.5593 15.7715 35.6491 14.6994 35.7307C13.6273 35.8123 12.5552 35.8776 11.4831 35.9266C10.4278 35.9755 9.56506 36 8.89501 36C8.84475 35.0371 8.7945 33.8783 8.74424 32.5237C8.69399 31.1528 8.65211 29.6758 8.61861 28.0927C8.5851 26.4933 8.5516 24.8613 8.5181 23.1966C8.4846 21.5156 8.45947 19.8754 8.44272 18.276C8.42596 16.6766 8.41759 15.2077 8.41759 13.8694C8.41759 13.1187 8.41759 12.4169 8.41759 11.7641C8.41759 11.1113 8.42596 10.5237 8.44272 10.0015C7.87317 10.0341 7.25337 10.0668 6.58331 10.0994C5.91325 10.1157 5.22644 10.1402 4.52288 10.1729C3.81932 10.2055 3.12414 10.23 2.43733 10.2463C1.75052 10.2626 1.10559 10.2708 0.502543 10.2708Z" fill="#FCF7E5"/>
</g>
<defs>
<clipPath id="clip0_325_2235">
<rect width="252" height="92" fill="white"/>
</clipPath>
</defs>
</svg>
